<svg id="Icons" fill="white" height="512" viewBox="0 0 60 60" width="512" xmlns="http://www.w3.org/2000/svg"><path d="m57 27c-1.302 0-2.402.839-2.816 2h-6.184v-4h6c.553 0 1-.447 1-1s-.447-1-1-1h-6v-4h7c1.103 0 2-.897 2-2v-2.184c1.161-.414 2-1.514 2-2.816 0-1.654-1.346-3-3-3s-3 1.346-3 3c0 1.302.839 2.402 2 2.816v2.184h-7v-1c0-2.206-1.794-4-4-4h-1v-7h2.184c.414 1.161 1.514 2 2.816 2 1.654 0 3-1.346 3-3s-1.346-3-3-3c-1.302 0-2.402.839-2.816 2h-2.184c-1.103 0-2 .897-2 2v7h-4v-6c0-.553-.447-1-1-1s-1 .447-1 1v6h-4v-6.184c1.161-.414 2-1.514 2-2.816 0-1.654-1.346-3-3-3s-3 1.346-3 3c0 1.302.839 2.402 2 2.816v6.184h-4v-6c0-.553-.447-1-1-1s-1 .447-1 1v6h-4v-7c0-1.103-.897-2-2-2h-2.184c-.414-1.161-1.514-2-2.816-2-1.654 0-3 1.346-3 3s1.346 3 3 3c1.302 0 2.402-.839 2.816-2h2.184v7h-1c-2.206 0-4 1.794-4 4v1h-7v-2.184c1.161-.414 2-1.514 2-2.816 0-1.654-1.346-3-3-3s-3 1.346-3 3c0 1.302.839 2.402 2 2.816v2.184c0 1.103.897 2 2 2h7v4h-6c-.553 0-1 .447-1 1s.447 1 1 1h6v4h-6.184c-.414-1.161-1.514-2-2.816-2-1.654 0-3 1.346-3 3s1.346 3 3 3c1.302 0 2.402-.839 2.816-2h6.184v4h-6c-.553 0-1 .447-1 1s.447 1 1 1h6v4h-7c-1.103 0-2 .897-2 2v2.184c-1.161.414-2 1.514-2 2.816 0 1.654 1.346 3 3 3s3-1.346 3-3c0-1.302-.839-2.402-2-2.816v-2.184h7v1c0 2.206 1.794 4 4 4h1v7h-2.184c-.414-1.161-1.514-2-2.816-2-1.654 0-3 1.346-3 3s1.346 3 3 3c1.302 0 2.402-.839 2.816-2h2.184c1.103 0 2-.897 2-2v-7h4v6c0 .553.447 1 1 1s1-.447 1-1v-6h4v6.184c-1.161.414-2 1.514-2 2.816 0 1.654 1.346 3 3 3s3-1.346 3-3c0-1.302-.839-2.402-2-2.816v-6.184h4v6c0 .553.447 1 1 1s1-.447 1-1v-6h4v7c0 1.103.897 2 2 2h2.184c.414 1.161 1.514 2 2.816 2 1.654 0 3-1.346 3-3s-1.346-3-3-3c-1.302 0-2.402.839-2.816 2h-2.184v-7h1c2.206 0 4-1.794 4-4v-1h7v2.184c-1.161.414-2 1.514-2 2.816 0 1.654 1.346 3 3 3s3-1.346 3-3c0-1.302-.839-2.402-2-2.816v-2.184c0-1.103-.897-2-2-2h-7v-4h6c.553 0 1-.447 1-1s-.447-1-1-1h-6v-4h6.184c.414 1.161 1.514 2 2.816 2 1.654 0 3-1.346 3-3s-1.346-3-3-3zm-1-16c.552 0 1 .448 1 1s-.448 1-1 1-1-.448-1-1 .448-1 1-1zm-8-8c.552 0 1 .448 1 1s-.448 1-1 1-1-.448-1-1 .448-1 1-1zm-18-1c.552 0 1 .448 1 1s-.448 1-1 1-1-.448-1-1 .448-1 1-1zm-18 3c-.552 0-1-.448-1-1s.448-1 1-1 1 .448 1 1-.448 1-1 1zm-8 6c.552 0 1 .448 1 1s-.448 1-1 1-1-.448-1-1 .448-1 1-1zm-1 20c-.552 0-1-.448-1-1s.448-1 1-1 1 .448 1 1-.448 1-1 1zm1 18c-.552 0-1-.448-1-1s.448-1 1-1 1 .448 1 1-.448 1-1 1zm8 8c-.552 0-1-.448-1-1s.448-1 1-1 1 .448 1 1-.448 1-1 1zm18 1c-.552 0-1-.448-1-1s.448-1 1-1 1 .448 1 1-.448 1-1 1zm18-3c.552 0 1 .448 1 1s-.448 1-1 1-1-.448-1-1 .448-1 1-1zm8-6c-.552 0-1-.448-1-1s.448-1 1-1 1 .448 1 1-.448 1-1 1zm-10-5c0 1.103-.897 2-2 2h-28c-1.103 0-2-.897-2-2v-28c0-1.103.897-2 2-2h28c1.103 0 2 .897 2 2zm11-13c-.552 0-1-.448-1-1s.448-1 1-1 1 .448 1 1-.448 1-1 1z"/><path d="m25.511 22.21c-.159-.712-.78-1.21-1.511-1.21s-1.352.498-1.512 1.212l-3.465 15.571c-.119.539.221 1.073.76 1.193.531.118 1.072-.219 1.193-.76l1.161-5.217h3.725l1.161 5.217c.104.467.518.783.976.783.072 0 .146-.008.218-.023.539-.12.879-.654.76-1.193zm-2.928 8.79 1.418-6.372 1.418 6.372h-2.835z"/><path d="m38 23c.553 0 1-.447 1-1s-.447-1-1-1h-6c-.553 0-1 .447-1 1s.447 1 1 1h2v14h-2c-.553 0-1 .447-1 1s.447 1 1 1h6c.553 0 1-.447 1-1s-.447-1-1-1h-2v-14z"/></svg>