<?xml version="1.0" encoding="UTF-8"?>
<svg id="Layer_1" data-name="Layer 1" xmlns="http://www.w3.org/2000/svg" version="1.1" viewBox="0 0 3156.18 2708.19">
  <defs>
    <style>
      .cls-1, .cls-2, .cls-3, .cls-4, .cls-5, .cls-6, .cls-7, .cls-8, .cls-9, .cls-10, .cls-11, .cls-12, .cls-13, .cls-14, .cls-15, .cls-16, .cls-17, .cls-18, .cls-19, .cls-20, .cls-21, .cls-22, .cls-23, .cls-24, .cls-25, .cls-26, .cls-27, .cls-28, .cls-29, .cls-30, .cls-31, .cls-32, .cls-33, .cls-34, .cls-35 {
        stroke-width: 0px;
      }

      .cls-1, .cls-2, .cls-4, .cls-7, .cls-8, .cls-9, .cls-10, .cls-11, .cls-12, .cls-13, .cls-15, .cls-16, .cls-17, .cls-18, .cls-19, .cls-20, .cls-21, .cls-22, .cls-23, .cls-24, .cls-26, .cls-27, .cls-28, .cls-29, .cls-31, .cls-34, .cls-35 {
        fill-rule: evenodd;
      }

      .cls-1, .cls-30 {
        fill: #fff;
      }

      .cls-2 {
        fill: #332a7c;
      }

      .cls-3, .cls-28 {
        fill: #3ea5ec;
      }

      .cls-4 {
        fill: #fcb054;
      }

      .cls-5, .cls-20 {
        fill: #7433ee;
      }

      .cls-6, .cls-29 {
        fill: #fb394b;
      }

      .cls-7 {
        fill: #fc0;
      }

      .cls-8 {
        fill: #fdddb6;
      }

      .cls-9, .cls-14 {
        fill: #221e54;
      }

      .cls-10 {
        fill: #fdcb90;
      }

      .cls-11 {
        fill: #360e94;
      }

      .cls-12 {
        fill: #4512b1;
      }

      .cls-13 {
        fill: #ff7c11;
      }

      .cls-15 {
        fill: #075682;
      }

      .cls-16 {
        fill: #631aec;
      }

      .cls-17 {
        fill: #a9a7d3;
      }

      .cls-18 {
        fill: #ffd400;
      }

      .cls-19, .cls-25 {
        fill: #b7d9f9;
      }

      .cls-21 {
        fill: #f61d2d;
      }

      .cls-22 {
        fill: #a67df5;
      }

      .cls-23 {
        fill: #2b2468;
      }

      .cls-24 {
        fill: #3091d8;
      }

      .cls-26 {
        fill: #fcbe72;
      }

      .cls-27 {
        fill: #ffde05;
      }

      .cls-31 {
        fill: #4dacee;
      }

      .cls-32 {
        fill: #f3f9ff;
      }

      .cls-33 {
        fill: #f8f9fc;
      }

      .cls-34 {
        fill: #ffa000;
      }

      .cls-35 {
        fill: #1a1840;
      }
    </style>
  </defs>
  <path class="cls-17" d="M359.42,1611.92c-1.3.42-2.69.07-3.68-.85-2.06-1.97-1.26-5.4,1.45-6.26l2.3-.73,2.27-.75,2.24-.76,2.22-.77,2.19-.79,2.67-1c3.41-1.31,6.49,2.69,4.34,5.67-.42.6-1.03,1.05-1.71,1.31l-2.74,1.02-2.26.81-2.28.8-2.31.78-2.34.77-2.36.75h0ZM314.72,1132.73c-1.16.16-2.32-.23-3.15-1.06-2.17-2.17-.9-5.91,2.14-6.32l1.59-.2,1.59-.18,1.59-.15,1.6-.12.7-.04c3.72-.2,5.43,4.62,2.26,6.83-.58.37-1.17.58-1.86.62l-.58.04-1.47.11-1.47.14-1.47.16-1.46.19h0ZM342.67,1133.19c-3.81-.61-4.33-6-.46-7.25.55-.16,1.08-.2,1.65-.1l1.82.3,1.6.29,1.6.32,1.6.34,1.6.36,1.59.38,1.59.4,1.59.43,2.03.58c.76.22,1.4.68,1.88,1.3,2.18,2.89-.57,6.86-4.03,5.84l-1.85-.52-1.5-.4-1.5-.38-1.5-.36-1.5-.34-1.5-.32-1.5-.3-1.5-.27-1.72-.29h0ZM377.07,1144.14c-3.58-1.7-2.4-7.17,1.75-7.09.5.02.99.14,1.44.36l1.67.8,1.54.76,1.54.78,1.53.79,1.53.81,1.52.83,1.52.84,1.51.86,1.12.65c1,.58,1.7,1.65,1.82,2.8.32,3.06-2.93,5.16-5.59,3.62l-1.05-.61-1.45-.82-1.46-.81-1.46-.79-1.46-.78-1.47-.76-1.47-.74-1.47-.72-1.6-.77h0ZM408.2,1163.1c-3.24-2.48-.75-7.64,3.29-6.55.46.14.82.32,1.2.61l1.98,1.5,1.42,1.1,1.41,1.12,1.41,1.13,1.4,1.14,1.39,1.15,1.39,1.17,1.41,1.21c2.98,2.63.33,7.52-3.59,6.36-.49-.16-.92-.4-1.31-.74l-1.33-1.14-1.34-1.13-1.35-1.12-1.35-1.1-1.36-1.09-1.37-1.08-1.37-1.06-1.94-1.47h0ZM412.69,1157.15l6.91,15.13,4.91-5.61-11.82-9.52h0ZM435.57,1187.44c-2.55-2.64-.02-7.06,3.55-6.2.73.18,1.33.52,1.85,1.06l1.96,2.06,1.25,1.34,1.24,1.35,1.23,1.36,1.22,1.37,1.21,1.38,2.02,2.35c1.97,2.35.46,5.89-2.59,6.13-1.17.08-2.34-.41-3.1-1.31l-1.95-2.27-2.36-2.67-1.2-1.32-1.21-1.31-1.21-1.3-1.92-2.02h0ZM458.93,1215.71c-2.21-3.2,1.32-7.24,4.83-5.41.52.29.94.65,1.28,1.15l1.99,2.86,1.02,1.5,1.01,1.51,1,1.51.99,1.52.97,1.52,1.37,2.19c2,3.41-1.78,7.13-5.14,5.12-.53-.35-.87-.69-1.21-1.22l-1.31-2.09-.94-1.48-1.93-2.94-.98-1.46c-.98-1.43-1.96-2.85-2.95-4.27h0ZM477.69,1247.18c-.29-.61-.4-1.21-.36-1.89.38-3.86,5.4-4.74,7.08-1.35l.61,1.25.75,1.58.74,1.58.72,1.58.71,1.58.69,1.58.68,1.59.66,1.59.62,1.52c1.51,3.92-3.5,6.97-6.29,3.81-.27-.32-.47-.65-.63-1.04l-.59-1.46-.63-1.53-.65-1.53-.67-1.53-.68-1.53-.7-1.52-.71-1.52-.73-1.52-.61-1.25h0ZM490.49,1281.32c-.4-1.56.28-3.24,1.65-4.08,2.16-1.32,4.95-.19,5.58,2.26l.53,2.15.37,1.58.35,1.57.33,1.57.31,1.57.3,1.57.28,1.56.26,1.56.29,1.9c.21,1.56-.59,3.1-2,3.82-2.29,1.17-5.05-.28-5.39-2.82l-.26-1.72-.24-1.47-.26-1.48-.28-1.48-.3-1.49-.32-1.49-.33-1.49-.35-1.5-.52-2.07h0ZM494.38,1317.06c.33-4.09,6-4.78,7.28-.84.14.48.18.85.16,1.36l-.06.91-.11,1.47-.14,1.47-.16,1.46-.18,1.45-.2,1.44-.23,1.44-.25,1.43-.27,1.42-.3,1.41-.35,1.51c-1.09,4.09-7.04,3.54-7.33-.74-.02-.39.02-.71.11-1.09l.29-1.28.27-1.29.25-1.3.23-1.31.21-1.32.19-1.32.17-1.33.15-1.34.12-1.35.1-1.36.06-.91h0ZM501.82,1317.57l-9.46,13.55,7.22,1.85,2.24-15.4h0ZM484.4,1350.7c.67-1.09,1.91-1.77,3.19-1.75,2.93.05,4.66,3.2,3.13,5.7l-.35.57-.77,1.21-.8,1.2-.83,1.18-.85,1.17-.88,1.15-.91,1.14-.93,1.13-.96,1.11-.99,1.1-1.02,1.08-.35.36c-.8.8-1.96,1.21-3.08,1.07-3.09-.39-4.39-4.13-2.2-6.33l1.16-1.22.88-.98.86-1,.84-1.01.81-1.02.79-1.03.76-1.05.74-1.06.72-1.07.69-1.08.35-.57h0ZM461.63,1374.29c2.29.63,3.79,3.5,2.03,5.88-.32.42-.73.77-1.19,1.02l-1,.55-1.48.79-1.51.77-1.54.75-1.57.73-1.6.71-1.63.69-1.66.67-2.06.79c-4.02,1.38-6.87-3.85-3.51-6.48.32-.23.62-.4.99-.53l1.84-.7,1.54-.62,1.51-.64,1.48-.66,1.45-.68,1.43-.69,1.36-.69c-.13-.07-.26-.15-.39-.24-.43-.31-.78-.68-1.05-1.14-2.46-4.11-5.16-8.15-8.13-11.91-2.48-3.2,1.2-7.56,4.83-5.51.41.24.75.54,1.05.92.53.67,1.04,1.35,1.56,2.03l1.38,1.88c2.04,2.88,3.93,5.76,5.74,8.79.72,1.23.67,2.51.14,3.54h0ZM424.92,1386.36c3.56-.69,5.91,3.72,3.34,6.28-.52.54-1.23.9-1.96,1.04l-2.09.38-2.1.35-2.13.33-2.16.31-2.19.29-2.22.26-2.17.23c-3.61.37-5.58-4.16-2.78-6.56.6-.49,1.25-.78,2.03-.86l2.08-.22,2.14-.25,2.1-.28,2.07-.3,2.04-.32,2.01-.34,2-.36h0ZM392.63,1384.74c2.74,2.92-.42,7.58-4.23,5.96-.47-.21-.83-.48-1.19-.84-4.13-4.31-6.08-9.87-6.63-15.73-.28-3.64,4.18-5.51,6.59-2.69.47.6.77,1.27.83,2.04.39,4.17,1.67,8.19,4.62,11.27h0ZM392.39,1354.13c-.8,1.38-2.28,2.09-3.85,1.84-2.53-.4-3.92-3.29-2.64-5.51,2.65-4.78,6.56-9.26,11.16-12.23,1.36-.87,3.12-.77,4.37.26,1.95,1.6,1.78,4.66-.35,6.02-3.61,2.35-6.62,5.87-8.7,9.63h0ZM419.53,1341.92c-1.59-.47-2.68-1.89-2.69-3.55-.02-2.48,2.38-4.31,4.76-3.61l.73.2.85.26.85.28.84.3.84.32.84.34.84.36.83.38.83.4.83.41.82.43.82.45.82.47.81.49.81.51.81.52,1.31.89c3.33,2.43.94,7.62-3.09,6.65-.46-.12-.83-.3-1.22-.57l-1.11-.75-.7-.45-.7-.44-.7-.42-.7-.4-.7-.39-.7-.37-.7-.35-.7-.33-.69-.31-.69-.3-.69-.28-.69-.26-.69-.24-.68-.22-.68-.21-.73-.2h0ZM464.71,1394.07c1.82,4.51,3.44,9.09,4.86,13.74.19.6.46,1.06.89,1.52,2.75,2.76,7.31.11,6.25-3.67-1.48-4.87-3.17-9.65-5.07-14.36-.19-.48-.44-.85-.79-1.22-2.87-2.87-7.59.18-6.13,3.99h0ZM474.58,1429.1c-.32-2,.98-3.88,2.98-4.27,2.04-.4,4.05.99,4.38,3.05.29,1.72.55,3.43.8,5.16l.2,1.47.36,2.94c.2,1.84.39,3.68.54,5.53.13,1.66-.85,3.2-2.41,3.79-2.31.87-4.83-.74-5.02-3.19-.15-1.77-.33-3.52-.52-5.28-.22-1.88-.47-3.75-.74-5.62-.18-1.19-.37-2.38-.57-3.57h0ZM476.79,1465.43c.07-1.22.7-2.3,1.72-2.96,2.54-1.63,5.88.33,5.72,3.34l-.1,1.85-.1,1.54-.11,1.54-.13,1.54-.14,1.54-.16,1.54-.17,1.54-.19,1.54-.35,2.56c-.58,3.59-5.29,4.38-7.01,1.15-.36-.74-.48-1.42-.37-2.23l.33-2.41.18-1.47.17-1.47.15-1.47.14-1.47.12-1.47.11-1.47.1-1.47.1-1.78h0ZM470.75,1501.19c.32-.98.93-1.72,1.84-2.21,2.96-1.5,6.23,1.22,5.28,4.4l-.37,1.22-.48,1.53-.5,1.52-.51,1.52-.53,1.52-.55,1.52-.57,1.51-.58,1.51-.6,1.51-.42,1.03c-.39.94-1.18,1.7-2.13,2.05-3.07,1.13-5.99-1.92-4.74-4.93l.39-.95.57-1.43.56-1.43.54-1.44.52-1.44.5-1.44.49-1.45.47-1.45.46-1.45.37-1.22h0ZM455.99,1534.25c.83-1.35,2.48-2.02,4.02-1.65,2.49.6,3.64,3.42,2.31,5.6l-.41.66-.91,1.43-.93,1.43-.95,1.42-.97,1.41-.99,1.41-1.01,1.4-1.03,1.39-1.05,1.39-.49.63c-.8,1.02-2.1,1.56-3.38,1.4-2.89-.36-4.28-3.72-2.49-6l1.43-1.88.98-1.32.96-1.33.93-1.34.92-1.34.9-1.35.88-1.35.86-1.36.41-.66h0ZM433.14,1562.33c1.24-1.16,3.1-1.33,4.53-.43,2.07,1.32,2.35,4.2.56,5.88l-1.03.98-1.37,1.27-1.39,1.25-1.41,1.25-1.44,1.24-1.46,1.22-1.48,1.21-1.96,1.56c-1.34,1.04-3.15,1.02-4.51.04-1.97-1.5-2.01-4.42-.05-5.94l1.82-1.45,1.42-1.16,1.39-1.17,1.37-1.18,1.35-1.19,1.33-1.2,1.3-1.2,1.03-.98h0ZM404.08,1584.23c3.41-2,7.25,1.99,4.92,5.39-.3.41-.68.77-1.13,1.03l-2.39,1.41-1.83,1.05-1.86,1.03-1.88,1.02-1.91,1.01-1.93.99-1.53.77c-3.48,1.72-6.99-2.4-4.62-5.6.36-.46.78-.82,1.31-1.08l1.46-.73,1.86-.96,1.84-.97,1.81-.98,1.79-.99,1.76-1,2.33-1.37Z"/>
  <g>
    <polygon class="cls-12" points="367.12 1143.31 283.85 1120.85 364.68 1118.55 367.12 1143.31"/>
    <polygon class="cls-16" points="283.85 1120.85 371.98 1105.25 364.68 1118.55 283.85 1120.85"/>
    <polygon class="cls-16" points="358.95 1129.68 342.88 1159.61 283.85 1120.85 358.95 1129.68"/>
    <polygon class="cls-9" points="367.12 1143.31 358.95 1129.68 353.05 1140.68 367.12 1143.31"/>
  </g>
  <path class="cls-19" d="M652.37,1857.04c9.22-16.15,20.15-31.28,32.59-45.09l-33.38-48.05c-2.58-3.72-1.86-8.82,1.65-11.68l42.77-34.76c3.52-2.86,8.62-2.53,11.75.75l40.5,42.46c16-9.27,32.95-16.84,50.53-22.57l-4.88-58.38c-.38-4.53,2.78-8.57,7.27-9.28l54.42-8.72c4.46-.71,8.73,2.14,9.8,6.52l13.82,56.95c18.51-.05,36.98,1.89,55.08,5.76l24.95-52.97c1.94-4.11,6.7-6.03,10.94-4.4l51.48,19.66c4.23,1.62,6.5,6.2,5.23,10.54l-16.51,56.27c16.06,9.2,31.12,20.08,44.87,32.47l48.05-33.38c3.72-2.58,8.83-1.86,11.68,1.65l34.75,42.77c2.86,3.52,2.54,8.62-.75,11.75l-42.46,40.5c9.27,15.99,16.84,32.95,22.57,50.53l58.38-4.88c4.53-.38,8.57,2.79,9.29,7.27l8.71,54.42c.71,4.45-2.13,8.73-6.52,9.8l-56.95,13.82c.05,18.51-1.89,36.98-5.76,55.08l52.97,24.95c4.11,1.94,6.03,6.69,4.41,10.94l-19.66,51.48c-1.62,4.23-6.2,6.5-10.54,5.23l-56.27-16.51c-9.16,15.98-19.98,30.97-32.29,44.67l33.24,48.26c2.56,3.72,1.83,8.8-1.67,11.65l-42.77,34.76c-3.53,2.87-8.65,2.53-11.77-.77l-40.26-42.55c-15.99,9.28-32.94,16.88-50.51,22.62l4.66,58.49c.36,4.52-2.8,8.53-7.27,9.25l-54.42,8.71c-4.47.72-8.76-2.15-9.81-6.55l-13.57-56.91c-18.51.06-36.98-1.86-55.09-5.71l-25.2,52.95c-1.95,4.09-6.69,5.99-10.92,4.38l-51.48-19.66c-4.24-1.62-6.51-6.22-5.22-10.58l16.71-56.11c-16.07-9.18-31.13-20.05-44.9-32.42l-48.27,33.24c-3.71,2.56-8.8,1.83-11.65-1.67l-34.75-42.77c-2.87-3.53-2.53-8.64.77-11.77l42.55-40.27c-9.28-15.99-16.88-32.94-22.62-50.51l-58.49,4.66c-4.52.36-8.54-2.8-9.25-7.27l-8.72-54.42c-.72-4.47,2.15-8.76,6.55-9.81l56.91-13.57c-.06-18.51,1.86-36.98,5.71-55.09l-52.95-25.19c-4.09-1.95-5.99-6.69-4.38-10.92l19.66-51.48c1.62-4.24,6.22-6.51,10.58-5.22l56.12,16.71h0ZM989.11,1969.86c-9.67-60.37-66.44-101.47-126.81-91.8-60.37,9.67-101.47,66.44-91.8,126.81,9.67,60.37,66.44,101.46,126.81,91.8,60.37-9.67,101.47-66.44,91.8-126.81Z"/>
  <path class="cls-19" d="M892.75,631.7c3.17-5.54,6.92-10.74,11.19-15.48l-11.46-16.49c-.89-1.28-.64-3.03.57-4.01l14.68-11.93c1.21-.98,2.96-.87,4.03.26l13.9,14.58c5.49-3.18,11.31-5.78,17.35-7.75l-1.68-20.04c-.13-1.55.96-2.94,2.49-3.19l18.68-2.99c1.53-.24,3,.73,3.36,2.24l4.75,19.55c6.35-.02,12.69.65,18.91,1.98l8.56-18.18c.67-1.41,2.3-2.07,3.76-1.51l17.67,6.75c1.45.55,2.23,2.13,1.79,3.62l-5.67,19.31c5.51,3.16,10.68,6.89,15.4,11.14l16.49-11.46c1.28-.89,3.03-.64,4.01.57l11.93,14.68c.98,1.21.87,2.96-.26,4.03l-14.57,13.9c3.18,5.49,5.78,11.31,7.75,17.34l20.04-1.68c1.55-.13,2.94.96,3.19,2.5l2.99,18.68c.24,1.53-.73,3-2.24,3.36l-19.55,4.74c.02,6.35-.65,12.69-1.98,18.91l18.18,8.56c1.41.66,2.07,2.3,1.51,3.76l-6.75,17.67c-.55,1.45-2.13,2.23-3.62,1.79l-19.31-5.67c-3.14,5.49-6.86,10.63-11.08,15.33l11.41,16.57c.88,1.28.63,3.02-.57,4l-14.68,11.93c-1.21.98-2.97.87-4.04-.26l-13.82-14.61c-5.49,3.19-11.31,5.79-17.34,7.76l1.6,20.08c.12,1.55-.96,2.93-2.5,3.18l-18.68,2.99c-1.53.25-3.01-.74-3.37-2.25l-4.66-19.53c-6.35.02-12.7-.64-18.91-1.96l-8.65,18.18c-.67,1.41-2.3,2.06-3.75,1.5l-17.67-6.75c-1.46-.56-2.24-2.14-1.79-3.63l5.74-19.26c-5.52-3.15-10.69-6.88-15.41-11.13l-16.57,11.41c-1.27.88-3.02.63-4-.57l-11.93-14.68c-.98-1.21-.87-2.97.26-4.04l14.61-13.82c-3.19-5.49-5.79-11.31-7.76-17.34l-20.08,1.6c-1.55.12-2.93-.96-3.18-2.5l-2.99-18.68c-.25-1.53.74-3.01,2.25-3.37l19.53-4.66c-.02-6.35.64-12.69,1.96-18.91l-18.18-8.65c-1.4-.67-2.06-2.3-1.5-3.75l6.75-17.67c.56-1.46,2.14-2.24,3.63-1.79l19.26,5.74h0ZM1008.34,670.42c-3.32-20.72-22.81-34.83-43.53-31.51-20.72,3.32-34.83,22.81-31.51,43.53,3.32,20.72,22.81,34.83,43.53,31.51,20.72-3.32,34.83-22.81,31.51-43.53Z"/>
  <path class="cls-19" d="M2494.45,968.18c3.13-5.48,6.84-10.62,11.06-15.31l-11.33-16.31c-.88-1.26-.63-2.99.56-3.96l14.52-11.8c1.19-.97,2.92-.86,3.99.25l13.74,14.41c5.43-3.15,11.18-5.72,17.15-7.66l-1.66-19.81c-.13-1.54.94-2.91,2.47-3.15l18.47-2.96c1.51-.24,2.96.73,3.33,2.21l4.69,19.33c6.28-.02,12.55.64,18.69,1.95l8.47-17.98c.66-1.4,2.27-2.05,3.71-1.5l17.47,6.67c1.44.55,2.21,2.1,1.77,3.58l-5.6,19.1c5.45,3.12,10.56,6.82,15.23,11.02l16.31-11.33c1.26-.88,3-.63,3.96.56l11.8,14.52c.97,1.19.86,2.92-.25,3.99l-14.41,13.74c3.15,5.43,5.72,11.18,7.66,17.15l19.81-1.66c1.54-.13,2.91.95,3.15,2.47l2.96,18.47c.24,1.51-.72,2.96-2.21,3.33l-19.33,4.69c.02,6.28-.64,12.55-1.95,18.69l17.98,8.47c1.4.66,2.05,2.27,1.5,3.71l-6.67,17.47c-.55,1.44-2.1,2.21-3.58,1.77l-19.1-5.61c-3.11,5.42-6.78,10.51-10.96,15.16l11.28,16.38c.87,1.26.62,2.99-.57,3.95l-14.52,11.8c-1.2.97-2.93.86-3.99-.26l-13.67-14.44c-5.43,3.15-11.18,5.73-17.14,7.68l1.58,19.85c.12,1.53-.95,2.9-2.47,3.14l-18.47,2.96c-1.52.24-2.97-.73-3.33-2.22l-4.61-19.32c-6.28.02-12.55-.63-18.7-1.94l-8.55,17.97c-.66,1.39-2.27,2.03-3.71,1.49l-17.47-6.67c-1.44-.55-2.21-2.11-1.77-3.59l5.67-19.05c-5.45-3.12-10.57-6.8-15.24-11l-16.38,11.28c-1.26.87-2.99.62-3.95-.57l-11.8-14.52c-.97-1.2-.86-2.93.26-3.99l14.44-13.67c-3.15-5.43-5.73-11.18-7.68-17.14l-19.85,1.58c-1.53.12-2.9-.95-3.14-2.47l-2.96-18.47c-.24-1.52.73-2.97,2.22-3.33l19.32-4.61c-.02-6.28.63-12.55,1.94-18.7l-17.97-8.55c-1.39-.66-2.03-2.27-1.49-3.71l6.67-17.47c.55-1.44,2.11-2.21,3.59-1.77l19.05,5.67h0ZM2608.74,1006.47c-3.28-20.49-22.55-34.44-43.04-31.16-20.49,3.28-34.44,22.55-31.16,43.04,3.28,20.49,22.55,34.44,43.04,31.16,20.49-3.28,34.44-22.55,31.16-43.04Z"/>
  <path class="cls-17" d="M2586.02,1773.39c-1.17.35-2.35.14-3.35-.55-2.61-1.89-1.94-5.93,1.13-6.84l3.37-1.03,3.31-1.03,3.25-1.04,3.19-1.04,1.49-.5c3.75-1.22,6.71,3.29,4.07,6.26-.46.5-1.01.86-1.65,1.07l-1.49.5-3.25,1.06-3.3,1.05-3.36,1.05-3.42,1.04h0ZM2716.84,1288.37c.92-.09,1.72.08,2.5.56,3.07,1.94,2.03,6.64-1.6,7.1-4.83.55-9.85,1.57-14.52,2.91-3.99,1.08-6.66-3.9-3.6-6.62.46-.39.91-.64,1.49-.81,5.11-1.44,10.45-2.56,15.73-3.15h0ZM2678.88,1300.16c3.09-1.5,6.44,1.4,5.39,4.66-.35.98-.99,1.79-1.95,2.25-4.5,2.23-8.89,4.68-13.14,7.35-1.4.89-3.28.76-4.55-.32-1.99-1.71-1.77-4.81.44-6.22,4.48-2.8,9.07-5.38,13.81-7.72h0ZM2645.91,1321.75c2.93-2.45,7.31.45,6.14,4.17-.26.72-.61,1.28-1.21,1.77-3.87,3.18-7.64,6.62-11.22,10.13-2.48,2.39-6.57.66-6.57-2.77.03-1.05.39-2,1.16-2.74,3.74-3.66,7.65-7.24,11.7-10.56h0ZM2618.4,1349.9c2.37-2.96,7.1-1.16,6.89,2.64-.07.81-.32,1.48-.82,2.13-3.13,3.97-6.07,8.02-8.86,12.24-.92,1.4-2.66,2.06-4.27,1.6-2.52-.7-3.61-3.67-2.18-5.84,2.91-4.4,5.97-8.63,9.24-12.77h0ZM2597.68,1383.51c1.72-3.86,7.51-2.61,7.4,1.73-.03.49-.13.9-.32,1.36l-.87,2.03-.73,1.8-.69,1.8-.65,1.8-.62,1.8-.58,1.79-.55,1.79-.34,1.2c-.35,1.31-1.42,2.37-2.74,2.7-2.89.74-5.48-1.88-4.7-4.76l.38-1.33.59-1.92.62-1.92.66-1.93.7-1.92.74-1.93.78-1.93.92-2.16h0ZM2588.29,1422.2c.15-2.92,3.29-4.63,5.82-3.15,1.22.75,1.96,2.05,1.89,3.49l-.1,1.82-.06,1.77-.03,1.77v1.77s.02,1.77.02,1.77l.05,1.77.08,1.77.11,1.77.05.72c.33,4.24-5.45,5.86-7.35,1.94-.19-.43-.31-.84-.34-1.3l-.06-.84-.11-1.89-.08-1.89-.06-1.89-.03-1.9v-1.9s.04-1.9.04-1.9l.07-1.9.1-1.82h0ZM2592.29,1461.57c-.96-4.04,4.13-6.55,6.76-3.35.36.45.58.92.73,1.48l.46,1.78.47,1.76.5,1.76.52,1.76.54,1.76.56,1.76.58,1.76.72,2.09c.56,1.59.05,3.35-1.29,4.37-2.09,1.58-5.09.69-5.98-1.77l-.77-2.24-.61-1.83-.58-1.84-.56-1.84-.54-1.84-.52-1.84-.5-1.85-.48-1.87h0ZM2605.82,1498.48c-.56-1.15-.49-2.48.13-3.58,1.57-2.7,5.47-2.55,6.83.26l1.47,3.08.85,1.74,1.74,3.47c.92,1.78,1.84,3.57,2.79,5.33,2,3.78-2.66,7.55-5.96,4.73-.35-.31-.61-.64-.84-1.06-.98-1.82-1.93-3.66-2.87-5.5l-1.79-3.56-.87-1.79-1.49-3.13h0ZM2624.44,1532.73c-2.08-3.43,1.85-7.42,5.37-5.26.51.33.92.74,1.23,1.26,2.64,4.38,5.36,8.72,8.1,13.04,2.02,3.17-1.23,7.09-4.77,5.63-.73-.33-1.3-.79-1.74-1.47-2.78-4.36-5.53-8.76-8.2-13.19h0ZM2645.3,1565.38c-2.27-3.46,1.79-7.64,5.37-5.34.43.29.8.66,1.08,1.09,2.83,4.3,5.68,8.59,8.51,12.89,2.19,3.34-1.54,7.5-5.21,5.43-.5-.31-.91-.69-1.24-1.19-2.83-4.3-5.67-8.59-8.5-12.89h0ZM2666.32,1597.65c-1.98-3.26,1.32-7.07,4.82-5.59.74.33,1.29.8,1.73,1.49,2.76,4.4,5.45,8.82,8.08,13.3,1.92,3.44-1.71,7.18-5.23,5.31-.63-.36-1.06-.8-1.43-1.41-2.59-4.41-5.24-8.76-7.96-13.1h0ZM2685.07,1630.85c-1.77-3.86,3.03-7.33,6.15-4.45.37.35.62.71.84,1.17l1.45,3.08.71,1.56.69,1.55.67,1.55.65,1.55.63,1.55.61,1.54.81,2.13c1.45,4.13-3.93,7.15-6.7,3.66-.24-.33-.42-.64-.56-1.02l-.75-1.97-.58-1.47-.6-1.47-.62-1.48-.64-1.48-.66-1.49-.68-1.49-.69-1.5-.72-1.53h0ZM2696.65,1666.26c-.51-3.89,4.52-5.97,6.91-2.82.42.58.66,1.13.75,1.84l.08.59.18,1.51.15,1.5.12,1.5.09,1.5.06,1.5.03,1.49v1.49l-.03,1.49-.06,1.49-.1,1.48-.06.74c-.17,1.62-1.31,2.97-2.9,3.37-2.58.65-5.06-1.47-4.78-4.12l.05-.57.09-1.31.06-1.32.03-1.32v-1.33l-.03-1.33-.06-1.34-.08-1.35-.11-1.35-.14-1.36-.16-1.36-.08-.59h0ZM2691.12,1701.49c1.94-3.66,7.51-2.13,7.27,2.04-.04.55-.17,1.05-.43,1.54l-.16.31-.75,1.4-.79,1.39-.83,1.39-.87,1.38-.91,1.37-.95,1.36-.99,1.36-1.04,1.35-1.08,1.34-.71.85c-1.15,1.33-2.97,1.71-4.57.99-2.33-1.1-2.94-4.04-1.3-6.01l.61-.72.97-1.21.93-1.22.89-1.22.85-1.22.81-1.22.78-1.23.74-1.23.7-1.23.67-1.24.16-.31h0ZM2666.7,1728.63c1.15-.85,2.73-.97,4-.33,2.59,1.34,2.88,4.84.54,6.58l-1.25.92-1.73,1.24-1.78,1.23-1.83,1.23-1.88,1.22-1.92,1.21-1.97,1.21-.81.48c-3.42,2.01-7.36-1.89-5.21-5.41.37-.55.74-.91,1.3-1.25l.73-.43,1.88-1.15,1.83-1.16,1.78-1.16,1.74-1.16,1.69-1.17,1.64-1.17,1.25-.92h0ZM2633.97,1747.49c1.55-.71,3.41-.31,4.53.99,1.67,1.95,1.02,4.96-1.32,6.03l-3.28,1.49-2.58,1.13-2.63,1.13-2.69,1.12-3.22,1.3c-1.55.6-3.32.16-4.38-1.13-1.67-2.03-.9-5.11,1.56-6.06l3.09-1.25,2.62-1.09,2.57-1.1,2.51-1.1,3.21-1.45Z"/>
  <g>
    <polygon class="cls-12" points="2717.88 1297.52 2809.9 1243.72 2712.75 1267.2 2717.88 1297.52"/>
    <polygon class="cls-16" points="2809.9 1243.72 2699.73 1253.71 2712.75 1267.2 2809.9 1243.72"/>
    <polygon class="cls-16" points="2723.19 1278.61 2752.07 1309.1 2809.9 1243.72 2723.19 1278.61"/>
    <polygon class="cls-9" points="2717.88 1297.52 2723.19 1278.61 2733.81 1289.82 2717.88 1297.52"/>
  </g>
  <path class="cls-17" d="M783.29,461.1c-3.07.34-3.66,4.61-.63,5.73.42.14.83.19,1.27.14l1.65-.19,2.95-.31,2.93-.28,2.91-.26,1.21-.1c1.33-.11,2.41-1.06,2.67-2.37.37-1.9-1.18-3.68-3.12-3.51l-1.26.1-2.96.26-2.98.29-2.99.31-1.65.19h0ZM812.93,458.94c-1.35.05-2.49.97-2.79,2.29-.42,1.87,1.03,3.67,2.96,3.61l1.21-.04,2.79-.06,2.77-.04,2.75-.02h2.18c3.21-.01,4.14-4.36,1.15-5.67-.38-.15-.7-.22-1.11-.22h-2.22s-2.81.01-2.81.01l-2.82.04-2.83.07-1.21.04h0ZM842.7,459.36c-2.98-.21-4.35,3.71-1.84,5.4.43.29.92.45,1.44.49l1.78.11,2.61.19,2.59.21,2.58.23,2.1.21c3.17.31,4.55-3.93,1.69-5.54-.35-.18-.7-.29-1.09-.33l-2.15-.21-2.63-.24-2.65-.21-2.66-.19-1.78-.11h0ZM872.29,462.7c-.67-.1-1.27-.01-1.87.3-2.49,1.36-1.89,5.02.89,5.52l3.03.52,2.42.44,2.4.46,2.38.48,1.22.26c1.28.27,2.59-.32,3.22-1.47.93-1.72-.05-3.88-1.97-4.29l-1.28-.27-2.44-.5-2.46-.47-2.47-.45-3.08-.53h0ZM901.38,469.25c-1.29-.37-2.67.17-3.36,1.33-.96,1.69-.15,3.77,1.72,4.34l2.53.74,2.22.68,2.21.7,2.19.71,1.96.66c3.18,1.04,5.42-3.1,2.67-5.19-.24-.17-.48-.29-.76-.39l-2.02-.68-2.25-.73-2.26-.71-2.28-.69-2.59-.76h0ZM929.5,479.27c-2.86-1.24-5.44,2.26-3.4,4.64.3.34.64.59,1.06.78l.72.31,2.03.89,2.01.91,2,.93,1.98.94,1.84.9c2.58,1.3,5.33-1.6,3.86-4.12-.28-.5-.73-.91-1.25-1.17l-1.89-.92-2.03-.97-2.05-.95-2.07-.93-2.08-.92-.72-.31h0ZM956.11,492.87c-.95-.57-2.03-.58-3-.05-1.95,1.13-1.99,3.88-.08,5.08l1.76,1.07,1.8,1.12,1.78,1.13,1.77,1.15,1.75,1.16.96.65c1.16.78,2.7.67,3.71-.31,1.33-1.29,1.16-3.51-.38-4.56l-1.01-.68-1.8-1.19-1.82-1.18-1.83-1.16-1.85-1.15-1.76-1.07h0ZM980.58,509.99c-2.09-1.65-5.07,0-4.79,2.65.11.78.46,1.43,1.07,1.93l1.63,1.33,1.57,1.31,1.55,1.33,1.54,1.34,1.52,1.35,1,.91c2.31,2.1,5.92-.36,4.7-3.34-.17-.39-.4-.72-.72-1.01l-1.05-.95-1.56-1.39-1.58-1.38-1.6-1.36-1.62-1.35-1.67-1.37h0ZM1002.41,530.44c-.59-.65-1.45-1.01-2.33-.96-2.49.13-3.71,3.09-2.03,4.93l.92,1,1.34,1.48,1.32,1.49,1.31,1.5,1.29,1.52,1.46,1.76c1.79,2.21,5.38.84,5.24-2.02-.05-.64-.24-1.18-.65-1.69l-1.54-1.85-1.33-1.56-1.34-1.55-1.36-1.54-1.38-1.53-.92-1h0ZM1021.05,553.79c-1.86-2.66-6-.83-5.31,2.33.1.39.22.67.44,1.01l1.11,1.64,1.09,1.64,1.07,1.64,1.05,1.65,1.04,1.66.94,1.54c1.36,2.31,4.95,1.66,5.42-.98.15-.72,0-1.45-.37-2.08l-.97-1.59-1.07-1.71-1.09-1.7-1.1-1.69-1.12-1.68-1.14-1.68h0ZM1036.19,579.57c-.54-1.13-1.8-1.79-3.03-1.62-2.01.28-3.14,2.41-2.26,4.23l.97,1.99.84,1.76.82,1.76.8,1.77.79,1.78.65,1.51c.49,1.16,1.68,1.89,2.94,1.79,2.02-.17,3.28-2.23,2.49-4.1l-.67-1.56-.81-1.83-.83-1.82-.84-1.81-.86-1.8-1-2.04h0ZM1047.54,607.21c-.3-.92-1.01-1.59-1.92-1.89-2.29-.71-4.44,1.46-3.68,3.74l.69,2.11.58,1.85.56,1.85.55,1.85.53,1.86.45,1.63c.82,3.01,5.19,2.88,5.76-.32.06-.42.04-.82-.07-1.22l-.46-1.68-.54-1.91-.56-1.91-.58-1.9-.6-1.9-.7-2.16h0ZM1054.98,636.15c-.24-1.29-1.28-2.26-2.58-2.4-1.95-.21-3.58,1.53-3.22,3.47l.37,2.07.32,1.9.31,1.91.29,1.91.27,1.91.24,1.8c.43,3.14,4.83,3.55,5.78.38.1-.37.13-.76.07-1.13l-.25-1.86-.28-1.96-.3-1.96-.31-1.96-.33-1.96-.38-2.12h0ZM1058.39,665.83c-.17-2.87-3.82-3.86-5.43-1.46-.34.55-.49,1.08-.46,1.73l.08,1.94.06,1.93.05,1.93.03,1.93v1.93s0,1.95,0,1.95c-.02.93.42,1.83,1.16,2.4,1.93,1.46,4.69.12,4.74-2.29v-2.06s0-1.98,0-1.98l-.03-1.98-.05-1.98-.06-1.98-.08-1.99h0ZM1057.72,695.72c.3-3.15-3.92-4.56-5.54-1.67-.18.35-.29.7-.33,1.09l-.17,1.83-.2,1.92-.22,1.92-.24,1.92-.25,1.92-.29,2.05c-.48,3.1,3.61,4.72,5.39,2.07.23-.36.38-.74.44-1.16l.31-2.15.26-1.97.24-1.97.22-1.98.21-1.98.17-1.83Z"/>
  <g>
    <polygon class="cls-12" points="845.87 469.32 741.07 459.09 837.94 440 845.87 469.32"/>
    <polygon class="cls-16" points="741.07 459.09 844.05 422.51 837.94 440 741.07 459.09"/>
    <polygon class="cls-16" points="833.29 454.55 819.98 493.85 741.07 459.09 833.29 454.55"/>
    <polygon class="cls-9" points="845.87 469.32 833.29 454.55 828.4 468.99 845.87 469.32"/>
  </g>
  <path class="cls-19" d="M2396.05,1808.01c6.08-10.65,13.29-20.63,21.5-29.75l-22.02-31.7c-1.7-2.45-1.23-5.82,1.09-7.7l28.22-22.93c2.32-1.89,5.69-1.67,7.75.49l26.72,28.02c10.55-6.11,21.74-11.11,33.34-14.89l-3.22-38.52c-.25-2.99,1.84-5.65,4.8-6.13l35.9-5.75c2.94-.47,5.76,1.41,6.47,4.3l9.12,37.57c12.21-.03,24.4,1.25,36.34,3.8l16.46-34.95c1.28-2.71,4.42-3.98,7.22-2.91l33.97,12.97c2.79,1.07,4.29,4.09,3.45,6.96l-10.9,37.12c10.6,6.07,20.53,13.25,29.6,21.42l31.7-22.02c2.45-1.7,5.82-1.22,7.7,1.09l22.93,28.22c1.89,2.32,1.67,5.69-.49,7.75l-28.01,26.72c6.11,10.55,11.11,21.74,14.89,33.34l38.52-3.22c2.99-.25,5.65,1.84,6.13,4.8l5.75,35.9c.47,2.94-1.41,5.76-4.3,6.47l-37.57,9.12c.03,12.21-1.25,24.4-3.8,36.34l34.95,16.46c2.71,1.28,3.98,4.42,2.91,7.22l-12.97,33.96c-1.07,2.79-4.09,4.29-6.96,3.45l-37.12-10.9c-6.04,10.55-13.18,20.43-21.31,29.47l21.93,31.84c1.69,2.45,1.2,5.81-1.1,7.69l-28.22,22.93c-2.33,1.89-5.7,1.67-7.77-.51l-26.57-28.07c-10.55,6.13-21.73,11.13-33.32,14.92l3.07,38.59c.24,2.98-1.85,5.63-4.8,6.1l-35.9,5.75c-2.95.47-5.78-1.42-6.47-4.32l-8.96-37.55c-12.21.04-24.4-1.22-36.34-3.76l-16.62,34.94c-1.28,2.7-4.42,3.95-7.21,2.89l-33.97-12.97c-2.8-1.07-4.3-4.1-3.44-6.98l11.03-37.02c-10.6-6.06-20.54-13.23-29.62-21.39l-31.84,21.93c-2.45,1.69-5.81,1.21-7.69-1.1l-22.93-28.22c-1.89-2.33-1.67-5.7.51-7.76l28.08-26.57c-6.13-10.55-11.13-21.73-14.92-33.32l-38.59,3.07c-2.98.24-5.63-1.85-6.1-4.8l-5.75-35.9c-.47-2.95,1.42-5.78,4.32-6.47l37.55-8.96c-.04-12.21,1.23-24.4,3.77-36.35l-34.94-16.62c-2.7-1.28-3.95-4.42-2.89-7.21l12.97-33.97c1.07-2.8,4.11-4.3,6.98-3.44l37.02,11.02h0ZM2618.23,1882.45c-6.38-39.83-43.84-66.94-83.66-60.57-39.83,6.38-66.94,43.84-60.57,83.67,6.38,39.83,43.83,66.94,83.66,60.56,39.83-6.38,66.94-43.83,60.57-83.66Z"/>
  <ellipse class="cls-25" cx="1594.6" cy="2361.36" rx="1169.75" ry="35.11"/>
  <path class="cls-11" d="M2148.64,657.3h0c5.39,0,9.81,4.51,9.81,10.03v305.31c0,5.52-4.41,10.03-9.81,10.03h0c-5.39,0-9.81-4.52-9.81-10.03v-305.31c0-5.52,4.41-10.03,9.81-10.03Z"/>
  <path class="cls-11" d="M2148.64,1147.97h0c5.39,0,9.81-4.51,9.81-10.03v-109.65c0-5.52-4.41-10.03-9.81-10.03h0c-5.39,0-9.81,4.52-9.81,10.03v109.65c0,5.52,4.41,10.03,9.81,10.03Z"/>
  <path class="cls-22" d="M1141.93,368.13h897.99c61.16,0,111.18,51.16,111.18,113.72v1761.33c0,62.56-50.02,113.73-111.18,113.73h-897.99c-61.16,0-111.18-51.17-111.18-113.73V481.85c0-62.56,50.02-113.72,111.18-113.72Z"/>
  <path class="cls-16" d="M1141.93,373.51h897.99c58.26,0,105.93,48.76,105.93,108.35v1761.33c0,59.59-47.67,108.35-105.93,108.35h-897.99c-58.26,0-105.93-48.76-105.93-108.35V481.85c0-59.59,47.67-108.35,105.93-108.35Z"/>
  <path class="cls-11" d="M2039.92,415.14c35.88,0,65.22,30.01,65.22,66.71v1761.33c0,36.7-29.34,66.71-65.22,66.71h-897.99c-35.88,0-65.22-30.01-65.22-66.71V481.85c0-36.7,29.34-66.71,65.22-66.71h897.99Z"/>
  <path class="cls-18" d="M1141.93,425.82c-30.12,0-54.78,25.23-54.78,56.04v1761.33c0,30.81,24.66,56.03,54.78,56.03h897.99c30.12,0,54.78-25.23,54.78-56.03V481.85c0-30.81-24.66-56.04-54.78-56.04h-897.99Z"/>
  <path class="cls-15" d="M1191.06,2299.22h848.86c30.12,0,54.78-25.23,54.78-56.03V481.85c0-30.81-24.66-56.04-54.78-56.04h-23.11l-825.75,1873.4Z"/>
  <path class="cls-1" d="M1771.6,955.59v20.24c0,4.47,5.44,6.73,8.58,3.59.97-1.01,1.5-2.17,1.5-3.59,0-7.04-.86-18.8.59-27.01.95-5.08-5.7-8.31-9.12-3.75-.42.64-.66,1.21-.81,1.96-.5,2.84-.74,5.67-.75,8.56h0ZM1788.58,918.3c-4.03,3.52-.44,10.23,4.93,8.57.66-.23,1.21-.54,1.74-1,4.44-3.87,9.87-6.93,15.58-8.45,5.51-1.6,4.6-9.53-1.06-9.9-.58-.02-1.04.03-1.6.17-7.34,2.05-13.84,5.61-19.58,10.61h0ZM1839.59,905.89c-4.47,0-6.73,5.44-3.59,8.58,1.01.97,2.17,1.5,3.59,1.5h20.17c4.47,0,6.73-5.44,3.59-8.59-1.01-.97-2.17-1.5-3.59-1.5h-20.17ZM1890.01,905.89c-4.47,0-6.73,5.44-3.59,8.58,1.01.97,2.17,1.5,3.59,1.5h20.17c4.47,0,6.73-5.44,3.59-8.59-1.01-.97-2.17-1.5-3.59-1.5h-20.17ZM1940.43,905.89c-4.47,0-6.73,5.44-3.59,8.58,1.01.97,2.17,1.5,3.59,1.5h20.17c4.47,0,6.73-5.44,3.59-8.59-1.01-.97-2.17-1.5-3.59-1.5h-20.17ZM1990.85,905.89c-4.47,0-6.73,5.44-3.59,8.58,1.01.97,2.17,1.5,3.59,1.5,5.66,0,13.35-.49,19.48.33,5.41.68,7.93-6.45,3.26-9.33-.6-.35-1.23-.58-1.92-.67-6.73-.86-14.3-.42-20.82-.42h0ZM2041.09,921.29c-3.76-3.93-10.39.11-8.29,5.45.24.57.57,1.07,1,1.52,4.09,4.2,7.32,9.62,9.12,15.19.67,2.08,2.61,3.52,4.78,3.52,3.42,0,5.88-3.32,4.83-6.58-2.12-6.85-6.45-13.96-11.44-19.1h0ZM2054.95,971.94c0-4.47-5.44-6.73-8.59-3.59-.97,1.01-1.5,2.17-1.5,3.59v20.17c0,4.47,5.44,6.73,8.59,3.59.97-1.01,1.5-2.17,1.5-3.59v-20.17h0ZM2054.95,1022.36c0-4.47-5.44-6.73-8.59-3.59-.97,1.01-1.5,2.17-1.5,3.59v20.17c0,4.47,5.44,6.73,8.59,3.59.97-1.01,1.5-2.17,1.5-3.59v-20.17h0ZM2054.95,1072.78c0-4.47-5.44-6.73-8.59-3.59-.97,1.01-1.5,2.17-1.5,3.59v20.17c0,4.47,5.44,6.73,8.59,3.59.97-1.01,1.5-2.17,1.5-3.59v-20.17h0ZM2054.95,1123.19c0-4.47-5.44-6.73-8.59-3.59-.97,1.01-1.5,2.17-1.5,3.59,0,6.31.43,13.31-.15,19.71-.5,5.33,6.75,7.72,9.47,2.82.32-.62.5-1.22.57-1.92.64-6.66.19-14.13.19-20.61h0ZM2041.08,1173.86c3.9-4.08-.84-10.63-6.06-7.92-.44.25-.85.55-1.2.92-4.19,4.37-9.14,7.63-14.8,9.79h-.02c-2.12.79-3.49,2.95-3.26,5.2.32,3.3,3.65,5.4,6.76,4.26,6.92-2.52,13.49-6.95,18.58-12.25h0ZM2022.5,1186.12l-3.48-9.46,3.48,9.46h0ZM1990.85,1189.24c4.47,0,6.73-5.44,3.59-8.59-1.01-.97-2.17-1.5-3.59-1.5h-20.17c-4.47,0-6.73,5.44-3.59,8.59,1.01.97,2.17,1.5,3.59,1.5h20.17ZM1940.43,1189.24c4.47,0,6.73-5.44,3.59-8.59-1.01-.97-2.17-1.5-3.59-1.5h-20.17c-4.47,0-6.73,5.44-3.59,8.59,1.01.97,2.17,1.5,3.59,1.5h20.17ZM1890.01,1189.24c4.47,0,6.73-5.44,3.59-8.59-1.01-.97-2.17-1.5-3.59-1.5h-20.17c-4.47,0-6.73,5.44-3.59,8.59,1.01.97,2.17,1.5,3.59,1.5h20.17ZM1839.6,1189.24c4.47,0,6.73-5.44,3.59-8.59-1.01-.97-2.17-1.5-3.59-1.5-6.61,0-13.35.21-19.94-.04-5.83-.18-7.34,7.92-1.79,9.83.48.14.84.21,1.34.24,6.74.29,13.64.05,20.39.05h0ZM1788.56,1176.82c4.2,3.68,10.4-1.13,7.79-6.15-.31-.55-.63-.95-1.09-1.38-4.58-4.07-8.01-8.77-10.44-14.4-2.19-5.04-9.68-3.48-9.68,2.01.02.69.13,1.29.4,1.93,2.97,6.97,7.36,12.97,13.02,18h0ZM1771.6,1127.09c0,4.47,5.44,6.73,8.58,3.59.97-1.01,1.5-2.17,1.5-3.59v-20.17c0-4.47-5.44-6.73-8.59-3.59-.97,1.01-1.5,2.17-1.5,3.59v20.17h0ZM1771.6,1076.67c0,4.47,5.44,6.73,8.58,3.59.97-1.01,1.5-2.17,1.5-3.59v-20.17c0-4.47-5.44-6.73-8.59-3.59-.97,1.01-1.5,2.17-1.5,3.59v20.17h0ZM1771.6,1026.25c0,4.47,5.44,6.73,8.58,3.59.97-1.01,1.5-2.17,1.5-3.59v-20.17c0-4.47-5.44-6.73-8.59-3.59-.97,1.01-1.5,2.17-1.5,3.59v20.17Z"/>
  <path class="cls-1" d="M1771.6,1274.13v20.24c0,4.47,5.44,6.73,8.59,3.59.97-1.01,1.5-2.17,1.5-3.59,0-6.97-.87-18.83.6-27.02.96-5.12-5.76-8.23-9.05-3.85-.45.63-.73,1.3-.88,2.06-.51,2.83-.74,5.69-.76,8.56h0ZM1788.58,1236.83c-4.03,3.52-.44,10.23,4.93,8.57.66-.23,1.21-.54,1.74-1,4.34-3.89,9.96-6.91,15.58-8.45,5.43-1.58,4.66-9.33-.87-9.89-.66-.04-1.15,0-1.78.16-7.26,2.12-13.93,5.54-19.58,10.61h0ZM1839.6,1224.43c-4.47,0-6.73,5.44-3.59,8.58,1.01.97,2.17,1.5,3.59,1.5h20.17c4.47,0,6.73-5.44,3.59-8.59-1.01-.97-2.17-1.5-3.59-1.5h-20.17ZM1890.01,1224.43c-4.47,0-6.73,5.44-3.59,8.58,1.01.97,2.17,1.5,3.59,1.5h20.17c4.47,0,6.73-5.44,3.59-8.59-1.01-.97-2.17-1.5-3.59-1.5h-20.17ZM1940.43,1224.43c-4.47,0-6.73,5.44-3.59,8.58,1.01.97,2.17,1.5,3.59,1.5h20.17c4.47,0,6.73-5.44,3.59-8.59-1.01-.97-2.17-1.5-3.59-1.5h-20.17ZM1990.85,1224.43c-4.47,0-6.73,5.44-3.59,8.58,1.01.97,2.17,1.5,3.59,1.5,5.7,0,13.34-.49,19.48.34,5.39.67,7.95-6.43,3.23-9.34-.58-.34-1.22-.57-1.89-.65-6.56-.89-14.69-.42-20.82-.42h0ZM2041.1,1239.83c-3.76-3.93-10.39.11-8.29,5.45.24.57.57,1.07,1,1.52,4.17,4.28,7.24,9.55,9.13,15.2.52,1.62,1.81,2.87,3.45,3.32,3.86,1.07,7.38-2.59,6.15-6.4-2.26-7-6.31-13.81-11.44-19.09h0ZM2054.95,1290.48c0-4.47-5.44-6.73-8.59-3.59-.97,1.01-1.5,2.17-1.5,3.59v20.17c0,4.47,5.44,6.73,8.59,3.59.97-1.01,1.5-2.17,1.5-3.59v-20.17h0ZM2054.95,1340.9c0-4.47-5.44-6.73-8.59-3.59-.97,1.01-1.5,2.17-1.5,3.59v20.17c0,4.47,5.44,6.73,8.59,3.59.97-1.01,1.5-2.17,1.5-3.59v-20.17h0ZM2054.95,1391.32c0-4.47-5.44-6.73-8.59-3.59-.97,1.01-1.5,2.17-1.5,3.59v20.17c0,4.47,5.44,6.73,8.59,3.59.97-1.01,1.5-2.17,1.5-3.59v-20.17h0ZM2054.95,1441.74c0-4.47-5.44-6.73-8.59-3.59-.97,1.01-1.5,2.17-1.5,3.59,0,6.24.47,13.35-.15,19.71-.5,5.33,6.75,7.72,9.47,2.82.32-.62.5-1.22.57-1.92.61-6.7.19-14.04.19-20.61h0ZM2041.08,1492.41c3.9-4.07-.84-10.63-6.06-7.92-.44.25-.85.56-1.2.92-4.18,4.36-9.15,7.64-14.8,9.79h-.01c-2.12.79-3.49,2.95-3.27,5.2.32,3.3,3.65,5.4,6.76,4.26,6.94-2.54,13.47-6.92,18.58-12.25h0ZM2022.5,1504.66l-3.48-9.46,3.48,9.46h0ZM1990.85,1507.78c4.47,0,6.73-5.44,3.59-8.59-1.01-.97-2.17-1.5-3.59-1.5h-20.17c-4.47,0-6.73,5.44-3.59,8.59,1.01.97,2.17,1.5,3.59,1.5h20.17ZM1940.43,1507.78c4.47,0,6.73-5.44,3.59-8.59-1.01-.97-2.17-1.5-3.59-1.5h-20.17c-4.47,0-6.73,5.44-3.59,8.59,1.01.97,2.17,1.5,3.59,1.5h20.17ZM1890.01,1507.78c4.47,0,6.73-5.44,3.59-8.59-1.01-.97-2.17-1.5-3.59-1.5h-20.17c-4.47,0-6.73,5.44-3.59,8.59,1.01.97,2.17,1.5,3.59,1.5h20.17ZM1839.6,1507.78c4.47,0,6.73-5.44,3.59-8.59-1.01-.97-2.17-1.5-3.59-1.5-6.61,0-13.35.21-19.94-.04-5.83-.18-7.34,7.92-1.79,9.83.48.14.84.21,1.34.24,6.74.29,13.64.05,20.39.05h0ZM1788.56,1495.36c4.2,3.68,10.4-1.13,7.79-6.15-.31-.55-.63-.95-1.09-1.38-4.58-4.07-8.01-8.77-10.44-14.4-2.19-5.04-9.68-3.48-9.68,2.01.02.69.13,1.29.4,1.93,2.97,6.97,7.36,12.97,13.02,17.99h0ZM1771.6,1445.63c0,4.47,5.44,6.73,8.59,3.59.97-1.01,1.5-2.17,1.5-3.59v-20.17c0-4.47-5.44-6.73-8.59-3.59-.97,1.01-1.5,2.17-1.5,3.59v20.17h0ZM1771.6,1395.21c0,4.47,5.44,6.73,8.59,3.59.97-1.01,1.5-2.17,1.5-3.59v-20.17c0-4.47-5.44-6.73-8.59-3.59-.97,1.01-1.5,2.17-1.5,3.59v20.17h0ZM1771.6,1344.79c0,4.47,5.44,6.73,8.59,3.59.97-1.01,1.5-2.17,1.5-3.59v-20.17c0-4.47-5.44-6.73-8.59-3.59-.97,1.01-1.5,2.17-1.5,3.59v20.17Z"/>
  <path class="cls-1" d="M1771.6,1596.81v20.24c0,4.47,5.44,6.73,8.59,3.59.97-1.01,1.5-2.17,1.5-3.59,0-6.97-.87-18.83.6-27.01.96-5.12-5.76-8.23-9.05-3.85-.45.63-.73,1.3-.88,2.06-.51,2.83-.74,5.69-.76,8.56h0ZM1788.58,1559.51c-4.03,3.52-.44,10.23,4.93,8.57.66-.23,1.21-.54,1.74-1,4.34-3.89,9.96-6.91,15.58-8.45,5.43-1.58,4.66-9.33-.87-9.89-.66-.04-1.15,0-1.78.16-7.26,2.12-13.93,5.54-19.58,10.61h0ZM1839.6,1547.11c-4.47,0-6.73,5.44-3.59,8.58,1.01.97,2.17,1.5,3.59,1.5h20.17c4.47,0,6.73-5.44,3.59-8.58-1.01-.97-2.17-1.5-3.59-1.5h-20.17ZM1890.01,1547.11c-4.47,0-6.73,5.44-3.59,8.58,1.01.97,2.17,1.5,3.59,1.5h20.17c4.47,0,6.73-5.44,3.59-8.58-1.01-.97-2.17-1.5-3.59-1.5h-20.17ZM1940.43,1547.11c-4.47,0-6.73,5.44-3.59,8.58,1.01.97,2.17,1.5,3.59,1.5h20.17c4.47,0,6.73-5.44,3.59-8.58-1.01-.97-2.17-1.5-3.59-1.5h-20.17ZM1990.85,1547.11c-4.47,0-6.73,5.44-3.59,8.58,1.01.97,2.17,1.5,3.59,1.5,5.7,0,13.34-.49,19.48.34,5.39.67,7.95-6.43,3.23-9.34-.58-.34-1.22-.57-1.89-.65-6.56-.89-14.69-.42-20.82-.42h0ZM2041.1,1562.5c-3.76-3.93-10.39.11-8.29,5.45.24.57.57,1.07,1,1.52,4.17,4.28,7.24,9.55,9.13,15.2.52,1.62,1.81,2.87,3.45,3.32,3.86,1.07,7.38-2.59,6.15-6.4-2.26-7-6.31-13.81-11.44-19.09h0ZM2054.95,1613.16c0-4.47-5.44-6.73-8.59-3.59-.97,1.01-1.5,2.17-1.5,3.59v20.17c0,4.47,5.44,6.73,8.59,3.59.97-1.01,1.5-2.17,1.5-3.59v-20.17h0ZM2054.95,1663.57c0-4.47-5.44-6.73-8.59-3.59-.97,1.01-1.5,2.17-1.5,3.59v20.17c0,4.47,5.44,6.73,8.59,3.59.97-1.01,1.5-2.17,1.5-3.59v-20.17h0ZM2054.95,1713.99c0-4.47-5.44-6.73-8.59-3.59-.97,1.01-1.5,2.17-1.5,3.59v20.17c0,4.47,5.44,6.73,8.59,3.59.97-1.01,1.5-2.17,1.5-3.59v-20.17h0ZM2054.95,1764.41c0-4.47-5.44-6.73-8.59-3.59-.97,1.01-1.5,2.17-1.5,3.59,0,6.24.47,13.35-.15,19.71-.5,5.33,6.75,7.72,9.47,2.82.32-.62.5-1.22.57-1.92.61-6.7.19-14.04.19-20.61h0ZM2041.08,1815.08c3.9-4.07-.84-10.63-6.06-7.92-.44.25-.85.55-1.2.92-4.18,4.36-9.15,7.64-14.8,9.79h-.01c-2.12.79-3.49,2.95-3.27,5.2.32,3.3,3.65,5.4,6.76,4.26,6.94-2.54,13.47-6.92,18.58-12.25h0ZM2022.5,1827.33l-3.48-9.46,3.48,9.46h0ZM1990.85,1830.46c4.47,0,6.73-5.44,3.59-8.59-1.01-.97-2.17-1.5-3.59-1.5h-20.17c-4.47,0-6.73,5.44-3.59,8.58,1.01.97,2.17,1.5,3.59,1.5h20.17ZM1940.43,1830.46c4.47,0,6.73-5.44,3.59-8.59-1.01-.97-2.17-1.5-3.59-1.5h-20.17c-4.47,0-6.73,5.44-3.59,8.58,1.01.97,2.17,1.5,3.59,1.5h20.17ZM1890.01,1830.46c4.47,0,6.73-5.44,3.59-8.59-1.01-.97-2.17-1.5-3.59-1.5h-20.17c-4.47,0-6.73,5.44-3.59,8.58,1.01.97,2.17,1.5,3.59,1.5h20.17ZM1839.6,1830.46c4.47,0,6.73-5.44,3.59-8.59-1.01-.97-2.17-1.5-3.59-1.5-6.61,0-13.35.21-19.94-.04-5.83-.18-7.34,7.92-1.79,9.83.48.14.84.21,1.34.24,6.74.29,13.64.05,20.39.05h0ZM1788.56,1818.04c4.2,3.68,10.4-1.13,7.79-6.15-.31-.55-.63-.95-1.09-1.38-4.58-4.07-8.01-8.77-10.44-14.4-2.19-5.04-9.68-3.48-9.68,2.01.02.69.13,1.29.4,1.93,2.97,6.97,7.36,12.97,13.02,18h0ZM1771.6,1768.3c0,4.47,5.44,6.73,8.59,3.59.97-1.01,1.5-2.17,1.5-3.59v-20.17c0-4.47-5.44-6.73-8.59-3.59-.97,1.01-1.5,2.17-1.5,3.59v20.17h0ZM1771.6,1717.88c0,4.47,5.44,6.73,8.59,3.59.97-1.01,1.5-2.17,1.5-3.59v-20.17c0-4.47-5.44-6.73-8.59-3.59-.97,1.01-1.5,2.17-1.5,3.59v20.17h0ZM1771.6,1667.46c0,4.47,5.44,6.73,8.59,3.59.97-1.01,1.5-2.17,1.5-3.59v-20.17c0-4.47-5.44-6.73-8.59-3.59-.97,1.01-1.5,2.17-1.5,3.59v20.17Z"/>
  <path class="cls-1" d="M1453.06,1596.81v20.24c0,4.47,5.44,6.73,8.59,3.59.97-1.01,1.5-2.17,1.5-3.59,0-6.97-.87-18.83.6-27.01.96-5.12-5.76-8.23-9.05-3.85-.45.63-.73,1.3-.88,2.06-.51,2.83-.74,5.69-.76,8.56h0ZM1470.04,1559.51c-4.03,3.52-.44,10.23,4.93,8.57.66-.23,1.21-.54,1.74-1,4.34-3.89,9.96-6.91,15.57-8.45,5.43-1.58,4.66-9.33-.87-9.89-.66-.04-1.15,0-1.78.16-7.26,2.12-13.93,5.54-19.58,10.61h0ZM1521.05,1547.11c-4.47,0-6.73,5.44-3.59,8.58,1.01.97,2.17,1.5,3.59,1.5h20.17c4.47,0,6.73-5.44,3.59-8.58-1.01-.97-2.17-1.5-3.59-1.5h-20.17ZM1571.47,1547.11c-4.47,0-6.73,5.44-3.59,8.58,1.01.97,2.17,1.5,3.59,1.5h20.17c4.47,0,6.73-5.44,3.59-8.58-1.01-.97-2.17-1.5-3.59-1.5h-20.17ZM1621.89,1547.11c-4.47,0-6.73,5.44-3.59,8.58,1.01.97,2.17,1.5,3.59,1.5h20.17c4.47,0,6.73-5.44,3.59-8.58-1.01-.97-2.17-1.5-3.59-1.5h-20.17ZM1672.31,1547.11c-4.47,0-6.73,5.44-3.59,8.58,1.01.97,2.17,1.5,3.59,1.5,5.7,0,13.34-.49,19.48.34,5.39.67,7.95-6.43,3.23-9.34-.58-.34-1.22-.57-1.89-.65-6.56-.89-14.69-.42-20.82-.42h0ZM1722.55,1562.5c-3.76-3.93-10.39.11-8.29,5.45.24.57.57,1.07,1,1.52,4.17,4.28,7.24,9.55,9.13,15.2.52,1.62,1.82,2.87,3.45,3.32,3.86,1.07,7.38-2.59,6.15-6.4-2.26-7-6.31-13.81-11.44-19.09h0ZM1736.41,1613.16c0-4.47-5.44-6.73-8.59-3.59-.97,1.01-1.5,2.17-1.5,3.59v20.17c0,4.47,5.44,6.73,8.59,3.59.97-1.01,1.5-2.17,1.5-3.59v-20.17h0ZM1736.41,1663.57c0-4.47-5.44-6.73-8.59-3.59-.97,1.01-1.5,2.17-1.5,3.59v20.17c0,4.47,5.44,6.73,8.59,3.59.97-1.01,1.5-2.17,1.5-3.59v-20.17h0ZM1736.41,1713.99c0-4.47-5.44-6.73-8.59-3.59-.97,1.01-1.5,2.17-1.5,3.59v20.17c0,4.47,5.44,6.73,8.59,3.59.97-1.01,1.5-2.17,1.5-3.59v-20.17h0ZM1736.41,1764.41c0-4.47-5.44-6.73-8.59-3.59-.97,1.01-1.5,2.17-1.5,3.59,0,6.24.47,13.35-.15,19.71-.5,5.33,6.75,7.72,9.47,2.82.32-.62.5-1.22.57-1.92.61-6.7.19-14.04.19-20.61h0ZM1722.54,1815.08c3.9-4.07-.83-10.63-6.06-7.92-.44.25-.85.55-1.2.92-4.18,4.36-9.15,7.64-14.8,9.79h-.01c-2.12.79-3.49,2.95-3.27,5.2.32,3.3,3.65,5.4,6.76,4.26,6.94-2.54,13.47-6.92,18.58-12.25h0ZM1703.96,1827.33l-3.48-9.46,3.48,9.46h0ZM1672.31,1830.46c4.47,0,6.73-5.44,3.59-8.59-1.01-.97-2.17-1.5-3.59-1.5h-20.17c-4.47,0-6.73,5.44-3.59,8.58,1.01.97,2.17,1.5,3.59,1.5h20.17ZM1621.89,1830.46c4.47,0,6.73-5.44,3.59-8.59-1.01-.97-2.17-1.5-3.59-1.5h-20.17c-4.47,0-6.73,5.44-3.59,8.58,1.01.97,2.17,1.5,3.59,1.5h20.17ZM1571.47,1830.46c4.47,0,6.73-5.44,3.59-8.59-1.01-.97-2.17-1.5-3.59-1.5h-20.17c-4.47,0-6.73,5.44-3.59,8.58,1.01.97,2.17,1.5,3.59,1.5h20.17ZM1521.05,1830.46c4.47,0,6.73-5.44,3.59-8.59-1.01-.97-2.17-1.5-3.59-1.5-6.61,0-13.35.21-19.94-.04-5.83-.18-7.34,7.92-1.79,9.83.48.14.84.21,1.34.24,6.74.29,13.64.05,20.39.05h0ZM1470.02,1818.04c4.2,3.68,10.4-1.13,7.79-6.15-.31-.55-.63-.95-1.09-1.38-4.58-4.07-8.01-8.77-10.44-14.4-2.19-5.04-9.68-3.48-9.68,2.01.02.69.13,1.29.4,1.93,2.97,6.97,7.36,12.97,13.02,18h0ZM1453.06,1768.3c0,4.47,5.44,6.73,8.59,3.59.97-1.01,1.5-2.17,1.5-3.59v-20.17c0-4.47-5.44-6.73-8.59-3.59-.97,1.01-1.5,2.17-1.5,3.59v20.17h0ZM1453.06,1717.88c0,4.47,5.44,6.73,8.59,3.59.97-1.01,1.5-2.17,1.5-3.59v-20.17c0-4.47-5.44-6.73-8.59-3.59-.97,1.01-1.5,2.17-1.5,3.59v20.17h0ZM1453.06,1667.46c0,4.47,5.44,6.73,8.59,3.59.97-1.01,1.5-2.17,1.5-3.59v-20.17c0-4.47-5.44-6.73-8.59-3.59-.97,1.01-1.5,2.17-1.5,3.59v20.17Z"/>
  <path class="cls-1" d="M1134.52,1596.81v20.24c0,4.47,5.44,6.73,8.59,3.59.97-1.01,1.5-2.17,1.5-3.59,0-6.97-.87-18.83.6-27.01.96-5.12-5.76-8.23-9.05-3.85-.45.63-.73,1.3-.88,2.06-.51,2.83-.74,5.69-.76,8.56h0ZM1151.5,1559.51c-4.03,3.52-.44,10.23,4.93,8.57.66-.23,1.21-.54,1.74-1,4.34-3.89,9.96-6.91,15.57-8.45,5.43-1.58,4.66-9.33-.87-9.89-.66-.04-1.15,0-1.78.16-7.26,2.12-13.93,5.54-19.58,10.61h0ZM1202.51,1547.11c-4.47,0-6.73,5.44-3.59,8.58,1.01.97,2.17,1.5,3.59,1.5h20.17c4.47,0,6.73-5.44,3.59-8.58-1.01-.97-2.17-1.5-3.59-1.5h-20.17ZM1252.93,1547.11c-4.47,0-6.73,5.44-3.59,8.58,1.01.97,2.17,1.5,3.59,1.5h20.17c4.47,0,6.73-5.44,3.59-8.58-1.01-.97-2.17-1.5-3.59-1.5h-20.17ZM1303.35,1547.11c-4.47,0-6.73,5.44-3.59,8.58,1.01.97,2.17,1.5,3.59,1.5h20.17c4.47,0,6.73-5.44,3.59-8.58-1.01-.97-2.17-1.5-3.59-1.5h-20.17ZM1353.77,1547.11c-4.47,0-6.73,5.44-3.59,8.58,1.01.97,2.17,1.5,3.59,1.5,5.7,0,13.34-.49,19.48.34,5.39.67,7.95-6.43,3.23-9.34-.58-.34-1.22-.57-1.89-.65-6.56-.89-14.69-.42-20.82-.42h0ZM1404.01,1562.5c-3.76-3.93-10.39.11-8.29,5.45.24.57.57,1.07,1,1.52,4.17,4.28,7.24,9.55,9.13,15.2.52,1.62,1.82,2.87,3.45,3.32,3.86,1.07,7.38-2.59,6.15-6.4-2.26-7-6.31-13.81-11.44-19.09h0ZM1417.87,1613.16c0-4.47-5.44-6.73-8.58-3.59-.97,1.01-1.5,2.17-1.5,3.59v20.17c0,4.47,5.44,6.73,8.59,3.59.97-1.01,1.5-2.17,1.5-3.59v-20.17h0ZM1417.87,1663.57c0-4.47-5.44-6.73-8.58-3.59-.97,1.01-1.5,2.17-1.5,3.59v20.17c0,4.47,5.44,6.73,8.59,3.59.97-1.01,1.5-2.17,1.5-3.59v-20.17h0ZM1417.87,1713.99c0-4.47-5.44-6.73-8.58-3.59-.97,1.01-1.5,2.17-1.5,3.59v20.17c0,4.47,5.44,6.73,8.59,3.59.97-1.01,1.5-2.17,1.5-3.59v-20.17h0ZM1417.87,1764.41c0-4.47-5.44-6.73-8.58-3.59-.97,1.01-1.5,2.17-1.5,3.59,0,6.24.46,13.35-.15,19.71-.5,5.33,6.75,7.72,9.47,2.82.32-.62.5-1.22.57-1.92.61-6.7.19-14.04.19-20.61h0ZM1404,1815.08c3.9-4.07-.83-10.63-6.06-7.92-.44.25-.85.55-1.2.92-4.18,4.36-9.15,7.64-14.8,9.79h-.02c-2.12.79-3.49,2.95-3.27,5.2.32,3.3,3.65,5.4,6.76,4.26,6.94-2.54,13.47-6.92,18.58-12.25h0ZM1385.42,1827.33l-3.48-9.46,3.48,9.46h0ZM1353.77,1830.46c4.47,0,6.73-5.44,3.59-8.59-1.01-.97-2.17-1.5-3.59-1.5h-20.17c-4.47,0-6.73,5.44-3.59,8.58,1.01.97,2.17,1.5,3.59,1.5h20.17ZM1303.35,1830.46c4.47,0,6.73-5.44,3.59-8.59-1.01-.97-2.17-1.5-3.59-1.5h-20.17c-4.47,0-6.73,5.44-3.59,8.58,1.01.97,2.17,1.5,3.59,1.5h20.17ZM1252.93,1830.46c4.47,0,6.73-5.44,3.59-8.59-1.01-.97-2.17-1.5-3.59-1.5h-20.17c-4.47,0-6.73,5.44-3.59,8.58,1.01.97,2.17,1.5,3.59,1.5h20.17ZM1202.51,1830.46c4.47,0,6.73-5.44,3.59-8.59-1.01-.97-2.17-1.5-3.59-1.5-6.61,0-13.35.21-19.94-.04-5.83-.18-7.34,7.92-1.79,9.83.48.14.84.21,1.34.24,6.74.29,13.64.05,20.39.05h0ZM1151.48,1818.04c4.2,3.68,10.4-1.13,7.79-6.15-.31-.55-.63-.95-1.09-1.38-4.58-4.07-8.01-8.77-10.44-14.4-2.19-5.04-9.68-3.48-9.68,2.01.02.69.13,1.29.4,1.93,2.97,6.97,7.36,12.97,13.02,18h0ZM1134.52,1768.3c0,4.47,5.44,6.73,8.59,3.59.97-1.01,1.5-2.17,1.5-3.59v-20.17c0-4.47-5.44-6.73-8.59-3.59-.97,1.01-1.5,2.17-1.5,3.59v20.17h0ZM1134.52,1717.88c0,4.47,5.44,6.73,8.59,3.59.97-1.01,1.5-2.17,1.5-3.59v-20.17c0-4.47-5.44-6.73-8.59-3.59-.97,1.01-1.5,2.17-1.5,3.59v20.17h0ZM1134.52,1667.46c0,4.47,5.44,6.73,8.59,3.59.97-1.01,1.5-2.17,1.5-3.59v-20.17c0-4.47-5.44-6.73-8.59-3.59-.97,1.01-1.5,2.17-1.5,3.59v20.17Z"/>
  <path class="cls-1" d="M1134.52,1919.48v20.24c0,4.47,5.44,6.73,8.59,3.59.97-1.01,1.5-2.17,1.5-3.59,0-6.97-.87-18.83.6-27.02.96-5.12-5.76-8.23-9.05-3.85-.45.63-.73,1.3-.88,2.06-.51,2.83-.74,5.69-.76,8.56h0ZM1151.5,1882.18c-4.03,3.52-.44,10.23,4.93,8.57.66-.23,1.21-.54,1.74-1,4.34-3.89,9.96-6.91,15.57-8.45,5.43-1.58,4.66-9.33-.87-9.89-.66-.04-1.15,0-1.78.16-7.26,2.12-13.93,5.54-19.58,10.61h0ZM1202.51,1869.78c-4.47,0-6.73,5.44-3.59,8.58,1.01.97,2.17,1.5,3.59,1.5h20.17c4.47,0,6.73-5.44,3.59-8.58-1.01-.97-2.17-1.5-3.59-1.5h-20.17ZM1252.93,1869.78c-4.47,0-6.73,5.44-3.59,8.58,1.01.97,2.17,1.5,3.59,1.5h20.17c4.47,0,6.73-5.44,3.59-8.58-1.01-.97-2.17-1.5-3.59-1.5h-20.17ZM1303.35,1869.78c-4.47,0-6.73,5.44-3.59,8.58,1.01.97,2.17,1.5,3.59,1.5h20.17c4.47,0,6.73-5.44,3.59-8.58-1.01-.97-2.17-1.5-3.59-1.5h-20.17ZM1353.77,1869.78c-4.47,0-6.73,5.44-3.59,8.58,1.01.97,2.17,1.5,3.59,1.5,5.7,0,13.34-.49,19.48.34,5.39.67,7.95-6.43,3.23-9.34-.58-.34-1.22-.57-1.89-.65-6.56-.89-14.69-.42-20.82-.42h0ZM1404.01,1885.17c-3.76-3.93-10.39.11-8.29,5.45.24.57.57,1.07,1,1.52,4.17,4.28,7.24,9.55,9.13,15.2.52,1.62,1.82,2.87,3.45,3.32,3.86,1.07,7.38-2.59,6.15-6.4-2.26-7-6.31-13.81-11.44-19.09h0ZM1417.87,1935.83c0-4.47-5.44-6.73-8.58-3.59-.97,1.01-1.5,2.17-1.5,3.59v20.17c0,4.47,5.44,6.73,8.59,3.59.97-1.01,1.5-2.17,1.5-3.59v-20.17h0ZM1417.87,1986.25c0-4.47-5.44-6.73-8.58-3.59-.97,1.01-1.5,2.17-1.5,3.59v20.17c0,4.47,5.44,6.73,8.59,3.59.97-1.01,1.5-2.17,1.5-3.59v-20.17h0ZM1417.87,2036.66c0-4.47-5.44-6.73-8.58-3.59-.97,1.01-1.5,2.17-1.5,3.59v20.17c0,4.47,5.44,6.73,8.59,3.59.97-1.01,1.5-2.17,1.5-3.59v-20.17h0ZM1417.87,2087.08c0-4.47-5.44-6.73-8.58-3.59-.97,1.01-1.5,2.17-1.5,3.59,0,6.24.46,13.35-.15,19.71-.5,5.33,6.75,7.72,9.47,2.82.32-.62.5-1.22.57-1.92.61-6.7.19-14.04.19-20.61h0ZM1404,2137.75c3.9-4.07-.83-10.63-6.06-7.92-.44.25-.85.55-1.2.92-4.18,4.36-9.15,7.64-14.8,9.79h-.02c-2.12.79-3.49,2.95-3.27,5.2.32,3.3,3.65,5.4,6.76,4.26,6.94-2.54,13.47-6.92,18.58-12.25h0ZM1385.42,2150.01l-3.48-9.46,3.48,9.46h0ZM1353.77,2153.13c4.47,0,6.73-5.44,3.59-8.58-1.01-.97-2.17-1.5-3.59-1.5h-20.17c-4.47,0-6.73,5.44-3.59,8.58,1.01.97,2.17,1.5,3.59,1.5h20.17ZM1303.35,2153.13c4.47,0,6.73-5.44,3.59-8.58-1.01-.97-2.17-1.5-3.59-1.5h-20.17c-4.47,0-6.73,5.44-3.59,8.58,1.01.97,2.17,1.5,3.59,1.5h20.17ZM1252.93,2153.13c4.47,0,6.73-5.44,3.59-8.58-1.01-.97-2.17-1.5-3.59-1.5h-20.17c-4.47,0-6.73,5.44-3.59,8.58,1.01.97,2.17,1.5,3.59,1.5h20.17ZM1202.51,2153.13c4.47,0,6.73-5.44,3.59-8.58-1.01-.97-2.17-1.5-3.59-1.5-6.61,0-13.35.21-19.94-.04-5.83-.18-7.34,7.92-1.79,9.83.48.14.84.21,1.34.24,6.74.29,13.64.05,20.39.05h0ZM1151.48,2140.71c4.2,3.68,10.4-1.13,7.79-6.15-.31-.55-.63-.95-1.09-1.38-4.58-4.07-8.01-8.77-10.44-14.4-2.19-5.04-9.68-3.48-9.68,2.01.02.69.13,1.29.4,1.93,2.97,6.97,7.36,12.97,13.02,18h0ZM1134.52,2090.97c0,4.47,5.44,6.73,8.59,3.59.97-1.01,1.5-2.17,1.5-3.59v-20.17c0-4.47-5.44-6.73-8.59-3.59-.97,1.01-1.5,2.17-1.5,3.59v20.17h0ZM1134.52,2040.55c0,4.47,5.44,6.73,8.59,3.59.97-1.01,1.5-2.17,1.5-3.59v-20.17c0-4.47-5.44-6.73-8.59-3.59-.97,1.01-1.5,2.17-1.5,3.59v20.17h0ZM1134.52,1990.14c0,4.47,5.44,6.73,8.59,3.59.97-1.01,1.5-2.17,1.5-3.59v-20.17c0-4.47-5.44-6.73-8.59-3.59-.97,1.01-1.5,2.17-1.5,3.59v20.17Z"/>
  <path class="cls-1" d="M1453.06,1919.48v20.24c0,4.47,5.44,6.73,8.59,3.59.97-1.01,1.5-2.17,1.5-3.59,0-6.97-.87-18.83.6-27.02.96-5.12-5.76-8.23-9.05-3.85-.45.63-.73,1.3-.88,2.06-.51,2.83-.74,5.69-.76,8.56h0ZM1470.04,1882.18c-4.03,3.52-.44,10.23,4.93,8.57.66-.23,1.21-.54,1.74-1,4.34-3.89,9.96-6.91,15.57-8.45,5.43-1.58,4.66-9.33-.87-9.89-.66-.04-1.15,0-1.78.16-7.26,2.12-13.93,5.54-19.58,10.61h0ZM1521.05,1869.78c-4.47,0-6.73,5.44-3.59,8.58,1.01.97,2.17,1.5,3.59,1.5h20.17c4.47,0,6.73-5.44,3.59-8.58-1.01-.97-2.17-1.5-3.59-1.5h-20.17ZM1571.47,1869.78c-4.47,0-6.73,5.44-3.59,8.58,1.01.97,2.17,1.5,3.59,1.5h20.17c4.47,0,6.73-5.44,3.59-8.58-1.01-.97-2.17-1.5-3.59-1.5h-20.17ZM1621.89,1869.78c-4.47,0-6.73,5.44-3.59,8.58,1.01.97,2.17,1.5,3.59,1.5h20.17c4.47,0,6.73-5.44,3.59-8.58-1.01-.97-2.17-1.5-3.59-1.5h-20.17ZM1672.31,1869.78c-4.47,0-6.73,5.44-3.59,8.58,1.01.97,2.17,1.5,3.59,1.5,5.7,0,13.34-.49,19.48.34,5.39.67,7.95-6.43,3.23-9.34-.58-.34-1.22-.57-1.89-.65-6.56-.89-14.69-.42-20.82-.42h0ZM1722.55,1885.17c-3.76-3.93-10.39.11-8.29,5.45.24.57.57,1.07,1,1.52,4.17,4.28,7.24,9.55,9.13,15.2.52,1.62,1.82,2.87,3.45,3.32,3.86,1.07,7.38-2.59,6.15-6.4-2.26-7-6.31-13.81-11.44-19.09h0ZM1736.41,1935.83c0-4.47-5.44-6.73-8.59-3.59-.97,1.01-1.5,2.17-1.5,3.59v20.17c0,4.47,5.44,6.73,8.59,3.59.97-1.01,1.5-2.17,1.5-3.59v-20.17h0ZM1736.41,1986.25c0-4.47-5.44-6.73-8.59-3.59-.97,1.01-1.5,2.17-1.5,3.59v20.17c0,4.47,5.44,6.73,8.59,3.59.97-1.01,1.5-2.17,1.5-3.59v-20.17h0ZM1736.41,2036.66c0-4.47-5.44-6.73-8.59-3.59-.97,1.01-1.5,2.17-1.5,3.59v20.17c0,4.47,5.44,6.73,8.59,3.59.97-1.01,1.5-2.17,1.5-3.59v-20.17h0ZM1736.41,2087.08c0-4.47-5.44-6.73-8.59-3.59-.97,1.01-1.5,2.17-1.5,3.59,0,6.24.47,13.35-.15,19.71-.5,5.33,6.75,7.72,9.47,2.82.32-.62.5-1.22.57-1.92.61-6.7.19-14.04.19-20.61h0ZM1722.54,2137.75c3.9-4.07-.83-10.63-6.06-7.92-.44.25-.85.55-1.2.92-4.18,4.36-9.15,7.64-14.8,9.79h-.01c-2.12.79-3.49,2.95-3.27,5.2.32,3.3,3.65,5.4,6.76,4.26,6.94-2.54,13.47-6.92,18.58-12.25h0ZM1703.96,2150.01l-3.48-9.46,3.48,9.46h0ZM1672.31,2153.13c4.47,0,6.73-5.44,3.59-8.58-1.01-.97-2.17-1.5-3.59-1.5h-20.17c-4.47,0-6.73,5.44-3.59,8.58,1.01.97,2.17,1.5,3.59,1.5h20.17ZM1621.89,2153.13c4.47,0,6.73-5.44,3.59-8.58-1.01-.97-2.17-1.5-3.59-1.5h-20.17c-4.47,0-6.73,5.44-3.59,8.58,1.01.97,2.17,1.5,3.59,1.5h20.17ZM1571.47,2153.13c4.47,0,6.73-5.44,3.59-8.58-1.01-.97-2.17-1.5-3.59-1.5h-20.17c-4.47,0-6.73,5.44-3.59,8.58,1.01.97,2.17,1.5,3.59,1.5h20.17ZM1521.05,2153.13c4.47,0,6.73-5.44,3.59-8.58-1.01-.97-2.17-1.5-3.59-1.5-6.61,0-13.35.21-19.94-.04-5.83-.18-7.34,7.92-1.79,9.83.48.14.84.21,1.34.24,6.74.29,13.64.05,20.39.05h0ZM1470.02,2140.71c4.2,3.68,10.4-1.13,7.79-6.15-.31-.55-.63-.95-1.09-1.38-4.58-4.07-8.01-8.77-10.44-14.4-2.19-5.04-9.68-3.48-9.68,2.01.02.69.13,1.29.4,1.93,2.97,6.97,7.36,12.97,13.02,18h0ZM1453.06,2090.97c0,4.47,5.44,6.73,8.59,3.59.97-1.01,1.5-2.17,1.5-3.59v-20.17c0-4.47-5.44-6.73-8.59-3.59-.97,1.01-1.5,2.17-1.5,3.59v20.17h0ZM1453.06,2040.55c0,4.47,5.44,6.73,8.59,3.59.97-1.01,1.5-2.17,1.5-3.59v-20.17c0-4.47-5.44-6.73-8.59-3.59-.97,1.01-1.5,2.17-1.5,3.59v20.17h0ZM1453.06,1990.14c0,4.47,5.44,6.73,8.59,3.59.97-1.01,1.5-2.17,1.5-3.59v-20.17c0-4.47-5.44-6.73-8.59-3.59-.97,1.01-1.5,2.17-1.5,3.59v20.17Z"/>
  <path class="cls-25" d="M502.63,834.19h168.52c4.15,0,7.53,3.37,7.53,7.53v110.39c0,4.15-3.37,7.53-7.53,7.53h-168.52c-4.15,0-7.53-3.37-7.53-7.53v-110.39c0-4.15,3.37-7.52,7.52-7.52Z"/>
  <path class="cls-5" d="M488.93,823.36h173.87c4.63,0,8.38,3.76,8.38,8.38v113.89c0,4.63-3.76,8.38-8.38,8.38h-173.87c-4.63,0-8.38-3.76-8.38-8.38v-113.88c0-4.63,3.76-8.38,8.38-8.38Z"/>
  <path class="cls-30" d="M488.93,823.98h173.87c4.28,0,7.76,3.48,7.76,7.76v113.88c0,4.28-3.48,7.76-7.76,7.76h-173.87c-4.28,0-7.76-3.48-7.76-7.76v-113.89c0-4.28,3.48-7.76,7.76-7.76Z"/>
  <path class="cls-16" d="M543.15,902.2c0-2.62-.91-4.63-2.73-6.01-1.82-1.37-4.46-2.07-7.93-2.07v-10.81c3.5,0,6.14-.66,7.94-1.97,1.8-1.33,2.71-3.22,2.71-5.71v-14.73c0-4.6,1.34-7.85,4.04-9.73,2.69-1.88,7.42-2.82,14.19-2.82v10.16c-2.76.09-4.65.66-5.68,1.73-1.04,1.05-1.56,2.59-1.56,4.64v13.51c-.17,5.66-3.41,9.01-9.75,10.02v.55c6.49,1.05,9.75,4.24,9.75,9.58v13.91c0,2.05.51,3.59,1.53,4.66,1.04,1.05,2.93,1.62,5.71,1.71v10.21c-6.78,0-11.51-.94-14.19-2.82-2.7-1.88-4.04-5.15-4.04-9.78v-14.24h0ZM608.57,916.43c0,3.36-.57,5.91-1.71,7.63-1.14,1.71-3.01,2.98-5.64,3.76-2.61.8-6.25,1.2-10.88,1.2v-10.21c2.76-.06,4.65-.6,5.68-1.64,1.04-1.02,1.56-2.61,1.56-4.73v-14c0-2.59.82-4.69,2.46-6.31,1.63-1.6,4.05-2.67,7.25-3.18v-.55c-6.31-1.02-9.53-4.36-9.7-10.02v-13.51c0-2.1-.51-3.67-1.53-4.69-1.04-1.03-2.93-1.59-5.71-1.68v-10.16c4.63,0,8.27.4,10.91,1.2,2.63.79,4.52,2.05,5.64,3.79,1.12,1.73,1.68,4.26,1.68,7.56v14.82c0,2.53.85,4.43,2.57,5.69,1.7,1.26,4.4,1.9,8.08,1.9v10.81c-3.47,0-6.11.62-7.93,1.85-1.82,1.23-2.73,3.32-2.73,6.23v14.24Z"/>
  <rect class="cls-25" x="2290.63" y="537.11" width="216.22" height="147.74" rx="8.86" ry="8.86"/>
  <path class="cls-5" d="M2283.35,524.35h204.79c5.45,0,9.88,4.43,9.88,9.88v134.14c0,5.45-4.43,9.88-9.88,9.88h-204.79c-5.45,0-9.88-4.43-9.88-9.88v-134.14c0-5.45,4.43-9.88,9.88-9.88Z"/>
  <rect class="cls-30" x="2274.21" y="525.08" width="223.08" height="152.43" rx="9.14" ry="9.14"/>
  <path class="cls-16" d="M2358.8,629.15l-52.39-23.1v-7.54l52.39-26.16v12.66l-36.1,16.73,36.1,14.82v12.6h0ZM2407.51,562.74l-28.75,77.12h-14.6l28.73-77.12h14.62ZM2412.7,616.55l36.1-14.82-36.1-16.73v-12.66l52.39,26.16v7.54l-52.39,23.1v-12.6Z"/>
  <path class="cls-19" d="M829.53,2341.22c184.06,0,333.26,7.65,333.26,17.09s-149.21,17.09-333.26,17.09-333.26-7.65-333.26-17.09,149.21-17.09,333.26-17.09Z"/>
  <polygon class="cls-23" points="910.4 2249.23 906.3 2301.41 846.78 2302.13 842.84 2244.62 910.4 2249.23"/>
  <polygon class="cls-23" points="646.47 2238.54 636.67 2283.84 579.81 2280.66 583.43 2225.85 646.47 2238.54"/>
  <path class="cls-9" d="M651.86,2254.73s-90.3,1.37-84.75-12.07c33.95-82.26,22.69-163.56,96.06-246.79,4.92-52.99,9.55-110.74-16.97-179.17-11.08-28.58-32.71-86.44-3.03-150.6l124.77,30.93c6.46,57.69,14.71,163.73-10.31,300.27-12.96,70.77-99.25,167.16-105.77,257.43Z"/>
  <path class="cls-23" d="M651.86,2254.73s-29.33.44-53.53-1.66c28.15-79.92,29.85-178.97,98.81-257.19,4.92-52.99,9.55-110.74-16.97-179.17-9.76-25.17-27.7-86.25-11.55-144.29l99.32,24.62c6.46,57.69,14.71,163.73-10.31,300.27-12.96,70.77-99.25,167.16-105.77,257.43Z"/>
  <path class="cls-9" d="M920.59,2267.72c-29.47,7.09-58.94,8.53-86.99,0,7.08-111.17-40.74-188.75-18.5-275.3-31.87-78.82-86.34-125.32-133.92-199.52-32.08-50.19-31.2-99.25-16.69-133.51,49.57,6.04,102.02,7.79,151.59,13.83,21.05,110.63,74,210.12,91.26,298.97,5.77,90.38,4.64,218.41,13.25,295.54Z"/>
  <path class="cls-23" d="M920.59,2267.72c-14.85,3.57-29.7,5.71-44.37,5.86,6.17-109.89-40.71-195.3-18.65-281.16-31.87-78.82-86.34-125.32-133.92-199.52-28.47-44.55-30.98-94.9-21.04-129.61,37.83,3.3,76.45,5.42,113.46,9.93,21.05,110.62,74,210.12,91.26,298.97,5.77,90.38,4.64,218.41,13.25,295.54Z"/>
  <path class="cls-28" d="M658.7,1266.98c-9.08-3.06-17.13-.61-34.69,26.03-17.56,26.64-53.22,96.1.75,221.26,17.43,54.6-6.93,105.98-3.08,147.58,1.29,13.94,11.6,24.55,21.53,32.39,0,0,110.1,53.58,179.18-10.62,4.69-13.86-.99-37.29-12.83-52.41-30.84-39.38-17.6-122.55-15.02-179.63,1.26-27.84-9.14-98.42-53.58-146.96,0,0-7.35-6.32-11.7-8.01-17.45-6.78-49.76-23.45-70.56-29.62Z"/>
  <path class="cls-24" d="M673.65,1322.1c-21.63,6.67-24.59,34.89-26.3,55.55-9.33,113.27,219.48,233.1,13.64,270.34,0,0,46.11.22,91.52-17.56-39.02,32.17-73.36,48.81-121.11,52.68l11.82,11.14.08.04h.03s.21.11.21.11c6.52,3.08,111.95,51.42,178.86-10.78,4.69-13.86-.99-37.29-12.83-52.41-10.79-13.78-16.18-32.92-18.53-54.43-.71-1.72-1.2-3.19-1.44-4.34-117.86-18.45-50.93-270.38-115.93-250.34Z"/>
  <path class="cls-4" d="M753.77,1254.49s-31.67,43.45-10.82,60.84c1.54,27.75-77.45-25.96-90.36-45.78,0,0,7.17-1.15,8.44-5.99,0,0,10.25-25.89,4.91-52.48l19.21,3.81,68.63,39.6Z"/>
  <path class="cls-10" d="M786.98,1193.02c-1.74,11.74,9.07,34.77,8.5,38.69-.54,3.76-16.62.65-17.8,3.32-6.1,13.86-6.72,14.78-14.91,40.68-4.52,14.27-65.26-16.54-74.19-27.22-11.28-11.84-13.89-21.42-14.63-32.6-.13-1.93-2.63,1.08-5.46-1.17-32.4-25.78-22.81-54.4-14.6-68.42,0,0,25.46-51.9,71.82-46.48,0,0,54.32-2.45,59.85,24.8,14.51,26.53,6.38,48.54,1.42,68.39Z"/>
  <path class="cls-9" d="M841.27,1143.01c-47.6,3.14-87.39-153.09-200.73-50.79-39.15,2.77-28.17,86.61,3.97,116.83,0,0,11.13,31.56,21.36,44.79.55-12.04,4.13-23.58,6.3-38.41-21.43-14.87-29.93-62.24-.87-48.63,0,0,8.92,22.12,8.99,38.44,0,0,17.53-39.34,15.01-53.46,0,0,130.54,33.49,145.96-8.78Z"/>
  <path class="cls-35" d="M874.22,2366.87c27.39.31,44.81-3.15,74.21-.32,80.59,7.75,93.86-.48,90.86-23.44,0-6.74-90.26-36.6-122.63-69.27-4.07-4.11-19.12,1.06-22.14,6.55-2.5,4.54-2.24,11.32-1.19,14.87-13.15,4.88-33.12-.81-45.15-3.57-6-1.38-7.05,9.61-7.35,22.62-.85,37.01-3.99,52.15,33.39,52.57Z"/>
  <path class="cls-35" d="M592.18,2337.62c26.65,6.31,44.41,6.76,72.47,15.97,76.93,25.25,91.67,20.13,93.79-2.92,1.49-6.58-80.03-55.52-104.43-94.5-3.07-4.91-18.88-3.16-23.03,1.53-3.43,3.88-4.67,10.55-4.43,14.25-13.9,1.87-32.13-8.06-43.26-13.4-5.55-2.66-8.99,7.82-12.14,20.45-8.96,35.92-15.34,50,21.04,58.62Z"/>
  <g>
    <path class="cls-33" d="M855.88,1264.8h196.33c26.37,0,47.77,21.41,47.77,47.77v196.33c0,26.37-21.41,47.77-47.77,47.77h-196.33c-26.37,0-47.78-21.41-47.78-47.78v-196.33c0-26.37,21.41-47.78,47.78-47.78Z"/>
    <path class="cls-16" d="M1015.45,1361.17c-3.51-4.36-7.48-8.34-11.83-11.85l7.63-15.87c.59-1.23.13-2.71-1.05-3.39l-14.37-8.29c-1.18-.68-2.68-.34-3.46.78l-10.02,14.55c-5.2-1.99-10.6-3.44-16.09-4.3l-1.33-17.58c-.1-1.36-1.24-2.41-2.6-2.41h-16.59c-1.36,0-2.49,1.05-2.6,2.4l-1.4,17.58c-5.5.87-10.9,2.32-16.1,4.33l-9.94-14.56c-.77-1.13-2.28-1.47-3.46-.79l-14.37,8.29c-1.18.68-1.64,2.15-1.05,3.38l7.59,15.94c-4.34,3.5-8.29,7.45-11.79,11.79l-15.87-7.63c-1.23-.59-2.71-.13-3.39,1.05l-8.29,14.37c-.68,1.18-.34,2.68.78,3.46l14.55,10.02c-1.99,5.2-3.44,10.6-4.3,16.09l-17.58,1.33c-1.36.1-2.41,1.24-2.41,2.6v16.59c0,1.36,1.05,2.49,2.4,2.6l17.58,1.4c.87,5.5,2.32,10.9,4.33,16.1l-14.56,9.94c-1.13.77-1.47,2.28-.79,3.46l8.29,14.37c.68,1.18,2.15,1.64,3.38,1.05l15.94-7.59c3.48,4.32,7.41,8.25,11.73,11.74l-7.58,15.93c-.58,1.23-.12,2.7,1.05,3.38l14.37,8.29c1.18.68,2.69.34,3.46-.79l9.94-14.56c5.19,2,10.59,3.45,16.09,4.32l1.4,17.61c.11,1.36,1.24,2.4,2.6,2.4h16.59c1.36,0,2.5-1.06,2.6-2.41l1.33-17.56c5.5-.86,10.9-2.31,16.1-4.32l10.01,14.54c.77,1.12,2.27,1.46,3.46.78l14.37-8.29c1.18-.68,1.64-2.16,1.05-3.39l-7.64-15.88c4.34-3.49,8.3-7.44,11.8-11.77l15.93,7.58c1.23.58,2.7.12,3.38-1.05l8.29-14.37c.68-1.18.34-2.69-.79-3.46l-14.57-9.94c2-5.19,3.45-10.59,4.32-16.09l17.61-1.4c1.36-.11,2.4-1.24,2.4-2.6v-16.59c0-1.36-1.06-2.5-2.41-2.6l-17.56-1.33c-.86-5.5-2.31-10.9-4.32-16.1l14.54-10.01c1.12-.77,1.46-2.27.78-3.46l-8.29-14.37c-.68-1.18-2.16-1.64-3.39-1.05l-15.88,7.64h0ZM983.38,1393.8c9.35,16.2,3.8,36.92-12.4,46.27-16.2,9.35-36.91,3.8-46.27-12.4-9.35-16.2-3.8-36.91,12.4-46.27,16.2-9.35,36.91-3.8,46.27,12.4Z"/>
  </g>
  <path class="cls-10" d="M898.97,1558.15c-58.11-25.24-119.72-38.22-168.27-49.94-2.26-22.3-7.16-43.19-15.18-68.92l-69.07,14.73c3.58,27.17,17.78,58.31,22.35,88.47,59.92,46.81,190.1,20.7,229.8,48.97,35.14,11.52,52.91,13.01,76.16-1.44,26.4-16.42,21.49-28.55,17.25-33.3-6.24-5.61-11.37,4.1-44.74,5.34-.31.01-9.58-1.92-9.47-6.61.09-4.19,14.55-13.3,14.38-15.75-.87-12.59-43.89,17.34-43.97,17.22-2.01.08-2.72,2.59-9.23,1.24Z"/>
  <path class="cls-31" d="M717.84,1416.27l7.52,58.77c-21.99,9.44-48.62,13.53-72.44,13.54l-19.04-68.38c-29.82-117.36,83.4-188.57,83.96-3.93Z"/>
  <path class="cls-19" d="M2288.82,2352.15c-151.5,0-274.32,5.2-274.32,11.63s122.81,11.62,274.32,11.62,274.32-5.2,274.32-11.62-122.81-11.63-274.32-11.63Z"/>
  <polygon class="cls-2" points="2251.61 2263.12 2254.89 2316.1 2309.06 2316.74 2312.19 2259.17 2251.61 2263.12"/>
  <polygon class="cls-2" points="2391.86 2261.66 2395.78 2312.08 2451.61 2311.92 2453.42 2259.8 2391.86 2261.66"/>
  <path class="cls-23" d="M2243.83,2274.16s78.4,10.46,76.82-4.77c-8.26-79.65,6.16-182.17-4.44-228.74-7.02-30.82,20.63-64.7,24.12-99.01l50.23-270.71-154.94,5.55c-8.58,60.84-32.19,220.94-17.88,357,6.16,58.55,23.05,168.55,26.09,240.68Z"/>
  <path class="cls-9" d="M2291.93,2277.67c15.87,0,29.38-1.86,28.72-8.27-8.26-79.66,6.16-182.17-4.45-228.74-7.02-30.82,20.63-64.7,24.12-99.01l32.51-175.2-70.26-9.99s4.1,165.29-16.39,251.35c0,0-4.4,162.8,5.75,269.87Z"/>
  <path class="cls-23" d="M2448.79,1668.93c12.51,34.34,18.58,94.15.5,161.19,2,52.45-14.89,132.89-14.71,183.82.13,37.77,27.7,163,31.2,254.98-23.74,7.99-56.72,8.08-83.67,1.43-12.31-97.14-29.81-157.13-46-242.79-9.27-49.06-16.51-116.16-25.48-162.4-8.17-42.14-5.27-56.77-33.65-90.2-21.66-25.51-46.25-71.67-44.44-101.65l216.27-4.37Z"/>
  <path class="cls-9" d="M2448.79,1668.93c12.51,34.34,18.58,94.15.5,161.19,2,52.45-14.89,132.89-14.71,183.82.13,37.78,27.7,163,31.2,254.98-8.69,2.92-18.62,4.79-29.04,5.65-11.34-78.82-45.82-253.19-45.82-253.19-1.37-23.22,12.29-198.07,12.29-198.07,11.12-35.46,8.09-107.2,2.43-153.56l43.15-.83Z"/>
  <path class="cls-35" d="M2287.08,2367.07c-25.01.28-40.92-2.88-67.76-.3-73.59,7.08-85.71-.44-82.97-21.4,0-6.16,82.43-33.42,111.98-63.26,3.72-3.76,17.46.97,20.21,5.98,2.28,4.15,2.05,10.33,1.09,13.58,12.01,4.45,30.24-.74,41.23-3.26,5.48-1.26,6.44,8.77,6.72,20.65.78,33.8,3.65,47.62-30.49,48.01Z"/>
  <path class="cls-35" d="M2379.61,2370.06c-34.85.13-43.71-6.77-39.92-25.03,1.74-9.55,42.97-34.78,50.59-58.12,1.6-.66,4.79-1.1,8.75-1.36,12.67-.83,33.35.17,36.12,1.42,3.84,4.75,6.45,11.42,7.03,16.79,5.52,1.28,7.68-1.43,9.83-2.84,6.73-4.43,4.96,40.78,2.88,51.98-4.08,21.97-46.08,17.06-75.28,17.17Z"/>
  <path class="cls-8" d="M2015.85,1226.75c-25.06-17.43-31.28-76.02-51.93-61.48l-3.5,2.46-8.12-2.84c-16.38-3.93-38.54,46.37-21.3,63.47,0,0,8.69,10.47,15.35,2.33,0,0,7.3,18.61,34.94,23.21,28.61,26.22,76.65,120.92,134.98,132.31,17.71-1.76,93.01,23.07,138.61,9.26,13.29-31.91,6.97-68.22-20.26-68.76-29.52-.59-58.36-21.06-112.67-.11-29.78-48.4-83.63-70.7-106.1-99.84Z"/>
  <path class="cls-34" d="M2317.78,1327.88c-25.64-16.44-58.8-21.63-90.68-12.22-23.85-.58-75.92-2.72-94.9,4.92-42.13-40.21-64.46-51.2-103.13-84.13-11.71,11.55-25.39,35.37-29.48,46.68,40.09,44.55,53.93,71.46,111.1,106.12,20.28,4.24,104.73,10.83,143.99,17.64,99.81,48.87,95.95-57.94,63.1-79Z"/>
  <path class="cls-13" d="M2008.19,1265.41c-3.89,6.84-7,13.25-8.61,17.71,40.09,44.55,53.93,71.46,111.1,106.12,20.28,4.24,104.73,10.83,143.99,17.64,70.02,34.29,89.01-8.05,82.78-43.64-82.14,6.17-221.18,3.93-221.18,3.93-10.24-5.97-61.91-56.1-108.07-101.75Z"/>
  <path class="cls-34" d="M2322.17,1302.18c-66.16,7.38-102.61,72.75-76.11,275.47,0,0-47.17,90.48-7.14,118.62l93.74,15.74c48.24,8.07,164.02-2.96,131.87-64.66-39.38-75.58,13.77-236.98-2.78-305.22-20.83-43.61-55.92-48.26-73.2-48.19-32.58-5.12-34.27,8.77-66.39,8.25Z"/>
  <path class="cls-13" d="M2223.22,1666.46c1.3,12.19,5.86,22.89,15.71,29.81l93.74,15.74c48.24,8.07,164.02-2.97,131.87-64.66-39.38-75.58,13.77-236.98-2.78-305.22-20.83-43.61-55.92-48.27-73.2-48.19-11.39-1.79-19-1.25-25.46.17,31.47,25.51,47.9,57.9,31.47,98.74,0,0,16.08,55.36,16.91,152.47,1.02,119.76-73.08,160.52-188.27,121.15Z"/>
  <path class="cls-26" d="M2296.33,1300.88s17.81,17.45,7.53,37.34c0,0,1.09,27.46,37.6,21.68,19.51-3.4,63.51-40.33,59.33-65.71,0,0-8.46.43-11.07-4.79,0,0-10.59-28.02-6.45-60.1l-86.95,71.57Z"/>
  <path class="cls-8" d="M2252.19,1187.14s-5.12,45.4-5.3,66.95c0,0,.51,19.24,30.24,47.03,1.4,1.31,3.44,3.12,4.81,3.77,6.62,3.14,8.09,4.92,54.9-16.58,0,0,19.89-11.67,30.85-25.41,0,0,54.77-63.37,47.2-92.64,0,0,.48-49.39-57.8-58.85,0,0-65.24-21.78-81.4,9.46-26.85,27.25-22.66,40.4-23.5,66.27Z"/>
  <path class="cls-9" d="M2252.21,1195.5c-.36,4.97-5.79,22,5.97,24.37,2.47-5.19,10.81-4.19,14.32.88.06-2,13.55-6.05,22.85,8.28,14.41-8.42,24.28,4.19,23.64,5.63,7.13-3.78,25,1.36,25.21,9.76,19.6.37,23.76-19.55,25.92-25.29l3.65.62c-2.83,13.54-2.47,23.52-2.47,23.52,11.75,11.49-.31,33.06-9.94,30.44,1.17,14.7-18.55,29.11-28.89,25.79-9.84,14.06-18.85,13.25-18.85,13.25-10.92,6.78-21.27,3.28-27.35-.9-7.38.15-17.95-2.6-23.35-14.27,0,0-14.22-3.54-14.72-20.69-5.16-2.36-12.98-23.17-1.27-35.85,0,0-7.6-10.99-2-27.71,0,0,.77-6.77,5.84-19.64l1.45,1.79h0ZM2262.34,1236.31s-3.52,6.26,2.41,10.44c0,0,8.62,4.5,19.17,8.02,10.75,2.85,16.93,2.57,16.93,2.57,9.4-2.4,12.51-9.58,12.51-9.58-9.89,3.64-44.75-2.98-51.01-11.45Z"/>
  <path class="cls-9" d="M2269.69,1148.42s19.04,27.39,47.25,4.36c0,0,16.58,19.63,38.8,3.46-3.27,5.45,3.4,23.91,16.59,26.81,0,0-.63,24.42-.36,29.9l2.89.77,7.83-24.55c.7-2.2,20.84-2.58,15.74,13.62,0,0-8.3,21.78-17.4,30.35-2.05,2.21-8.67,2.93-11.36-1.6.36-1.5-7.58,42.83-13.03,47.28,0,0,20.4-5.55,24.84-17.11,1.32,1.9,17.09-.66,19.2-14.41,2.13.42,17.59-14.71,11.48-22.41,0,0,13-4.03,16.34-17.32,0,0,8.55-21.61-4.58-24.55,1.53.44,21.42-19.83,4.04-37.45,8.6-8.6.97-35.8-21.04-28.58,5.94-8.33-9.56-24.09-20.68-13.88,3.81-12.87-21.53-26.05-24.52-11.54,1.02-10.57-15.29-22.62-30.31-10.25-3.45-10.55-35.27-13.37-42.58,12.81.37-5.33-9.91-14.34-16.63-4.42-.61-8.96-21.38-15.59-30.06,1.87-5.47-1.09-27.72,19.97-4.62,35.5-5.66,12.29,16.83,35.79,32.16,21.35Z"/>
  <g>
    <rect class="cls-33" x="1819.93" y="955.07" width="304.42" height="304.42" rx="49.83" ry="49.83"/>
    <path class="cls-16" d="M1934.56,1089.63c6.36,19.09,20.13,43.16,40.59,60.05,4.15,3.42,9.1,5.63,13.56,2.62l18.84-12.73c4.14-2.8,9.67-2.04,12.9,1.77,10.21,12.01,20.82,23.28,31.73,33.79,2.2,2.11,3.22,4.83,2.96,7.87-.26,3.04-1.73,5.54-4.26,7.25l-27.43,18.54c-6.05,4.09-13.31,4.53-19.81,1.21-30.82-15.73-58.2-39.25-78.95-69.94-20.75-30.69-32.37-64.87-35.48-99.33-.66-7.27,2.46-13.84,8.51-17.93l27.68-18.71c2.53-1.71,5.41-2.14,8.33-1.24,2.92.9,5.06,2.87,6.2,5.7,5.64,14.06,12.1,28.14,19.41,42.12,2.31,4.42.95,9.81-3.19,12.61l-18.97,12.82c-4.45,3.01-4.32,8.45-2.62,13.55Z"/>
  </g>
  <path class="cls-8" d="M2119.4,1178.62c-26.8-21.08-29.89-86.82-53.87-71.96l-4.06,2.52-8.87-3.7c-18.01-5.46-46.02,49.17-27.91,69.37,0,0,9.01,12.25,16.96,3.6,0,0,6.92,21.24,37.44,28.17,30.18,31.11,77.54,139.86,141.83,156.39,19.87-.81,102.2,31.83,153.95,19.41,16.91-34.71,12.25-75.61-18.08-78-32.88-2.59-63.69-27.31-125.63-7.51-30.03-55.92-88.62-84.32-111.77-118.29Z"/>
  <path class="cls-34" d="M2449.43,1311.18c-27.51-20.01-64.15-27.97-100.31-19.57-26.56-2.21-84.48-8.02-106.14-.74-44.34-47.6-68.52-61.32-109.48-100.58-13.82,12.11-30.63,37.77-35.93,50.11,41.78,52.3,55.45,83.22,116.92,125.61,22.33,6.06,116.07,18.94,159.4,29.11,108.09,61.04,110.78-58.31,75.55-83.95Z"/>
  <path class="cls-13" d="M2107.62,1222.31c-4.46,6.96-8.07,13.47-10.06,18.1,41.78,52.3,55.45,83.22,116.92,125.61,22.33,6.06,116.07,18.94,159.4,29.11,69.9,39.47,95.71,3.51,95.7-33.77-75.02,31.38-237.74-18.35-237.74-18.35,0,0-76.42-73.52-124.22-120.7Z"/>
  <path class="cls-33" d="M1589.77,2086.61h189c25.38,0,45.99,20.61,45.99,45.99v189c0,25.38-20.61,45.99-45.99,45.99h-189c-25.38,0-45.99-20.61-45.99-45.99v-189c0-25.38,20.61-45.99,45.99-45.99Z"/>
  <path class="cls-28" d="M1684.27,2134.83h1.19s.01,0,.01,0l1,.02h.18s.02,0,.02,0h.11s.86.03.86.03h.2s.03,0,.03,0h.24s.83.05.83.05h.08s.04,0,.04,0l.86.05.53.03.72.05h.2s.06.02.06.02l.59.05.22.02.37.03.59.05h.11c21.87,2.14,41.51,11.9,56.21,26.6,16.7,16.7,27.03,39.77,27.03,65.25s-10.33,48.55-27.03,65.25c-14.7,14.7-34.34,24.46-56.21,26.59h-.11s-.59.07-.59.07l-.37.03-.22.02-.59.05h-.06s-.2.02-.2.02l-.73.05-.51.03-.87.05h-.04s-.08,0-.08,0l-.83.04h-.24s-.03.01-.03.01h-.2s-.86.03-.86.03h-.11s-.02,0-.02,0h-.18s-1,.02-1,.02h-1.2s-1.19,0-1.19,0h-.01l-1-.02h-.18s-.02,0-.02,0h-.11s-.86-.03-.86-.03h-.2s-.03,0-.03,0h-.24s-.83-.05-.83-.05h-.08s-.04,0-.04,0l-.87-.05-.5-.03-.76-.05h-.18s-.06-.02-.06-.02l-.59-.05-.22-.02-.37-.03-.59-.05h-.11c-21.87-2.14-41.51-11.9-56.21-26.6-16.7-16.7-27.03-39.77-27.03-65.25s10.33-48.55,27.03-65.25c14.7-14.7,34.34-24.46,56.21-26.59h.11s.59-.07.59-.07l.37-.03.22-.02.59-.05h.06s.18-.02.18-.02l.74-.05.52-.03.86-.05h.04s.08,0,.08,0l.83-.04h.24s.03-.01.03-.01h.2s.85-.03.85-.03h.11s.02,0,.02,0h.18s1-.02,1-.02h1.2ZM1688.15,2143.06v46.32c10.38-.47,20.26-2.8,29.31-6.67,2.06-.88,4.08-1.84,6.06-2.88-.52-.99-1.05-1.96-1.6-2.92-8.24-14.43-19.93-26.18-33.77-33.84h0ZM1688.15,2197.16v26.06h46.8c-.48-12.99-3.33-25.29-8.09-36.39-2.08,1.08-4.2,2.09-6.36,3.01-10.01,4.28-20.92,6.84-32.35,7.32h0ZM1688.15,2230.99v26.06c11.43.48,22.34,3.04,32.35,7.32,2.16.93,4.29,1.93,6.36,3.01,4.76-11.1,7.61-23.4,8.08-36.39h-46.8ZM1688.15,2264.82v46.33c13.84-7.66,25.53-19.42,33.77-33.84.55-.96,1.08-1.94,1.6-2.92-1.98-1.04-4-2-6.06-2.88-9.05-3.87-18.93-6.21-29.31-6.67h0ZM1680.38,2311.15v-46.33c-10.38.47-20.26,2.8-29.31,6.67-2.06.88-4.08,1.85-6.06,2.88.52.99,1.05,1.96,1.6,2.92,8.24,14.43,19.93,26.18,33.77,33.84h0ZM1680.38,2257.05v-26.06h-46.79c.48,12.99,3.33,25.29,8.08,36.39,2.07-1.08,4.2-2.09,6.36-3.01,10.01-4.28,20.92-6.84,32.35-7.32h0ZM1680.38,2223.22v-26.06c-11.43-.48-22.34-3.04-32.35-7.32-2.16-.93-4.29-1.93-6.36-3.01-4.76,11.1-7.61,23.4-8.08,36.39h46.79ZM1680.38,2189.39v-46.32c-13.84,7.66-25.52,19.42-33.77,33.84-.55.96-1.08,1.94-1.6,2.92,1.98,1.04,4,2,6.06,2.88,9.05,3.87,18.93,6.21,29.31,6.67h0ZM1768.69,2230.99h-25.96c-.49,14.4-3.71,28.03-9.09,40.29,5.17,3.28,10,7.07,14.4,11.28,12.12-13.93,19.76-31.87,20.65-51.57h0ZM1625.81,2230.99h-25.97c.89,19.7,8.53,37.64,20.65,51.57,4.41-4.22,9.23-8,14.4-11.28-5.39-12.26-8.6-25.9-9.09-40.29h0ZM1599.85,2223.22h25.97c.49-14.4,3.7-28.03,9.09-40.29-5.17-3.28-10-7.07-14.4-11.28-12.13,13.93-19.76,31.88-20.65,51.57h0ZM1742.72,2223.22h25.96c-.89-19.7-8.53-37.64-20.65-51.57-4.41,4.22-9.23,8-14.4,11.28,5.39,12.26,8.6,25.9,9.09,40.29h0ZM1742.69,2288.17c-3.83-3.66-8-6.97-12.46-9.86-.51.96-1.03,1.91-1.57,2.85-6.19,10.84-14.2,20.3-23.56,27.87h.03c.46-.12.91-.24,1.37-.37l.7-.19h0s.65-.19.65-.19l.07-.02.65-.19.69-.21.62-.19.13-.04.56-.18.07-.02.68-.23.52-.18.21-.07.54-.19.24-.09.94-.34.31-.12.5-.19.23-.09.52-.2.66-.26.6-.25.17-.07.52-.22h.03s.65-.3.65-.3l.63-.28.04-.02.58-.26.05-.02.65-.3.05-.02.59-.28.08-.04.49-.23.07-.03.62-.3h.02s.63-.33.63-.33l.06-.03.42-.21.53-.28.17-.09.08-.04.62-.33h0c.41-.23.82-.45,1.23-.68l.61-.35c.41-.23.82-.47,1.22-.71l.6-.36.06-.03.54-.34.04-.02.52-.32.04-.03.59-.37h0s.59-.39.59-.39l.07-.04.39-.26.14-.09.51-.34.07-.05.68-.47.08-.06.39-.27.44-.31.13-.1.57-.41h.02s.33-.26.33-.26l.22-.16.37-.27.06-.05.69-.52.06-.04.73-.57.16-.12.52-.41.19-.15h0s.55-.45.55-.45l.24-.19.13-.11.51-.43.14-.11.06-.05.53-.46.17-.15.07-.06.67-.59.02-.02.12-.11.52-.47.11-.1.1-.09.51-.47.21-.19.61-.57.06-.05.11-.11h0ZM1638.31,2278.31c-4.46,2.9-8.63,6.2-12.46,9.86l.11.11.06.05.61.57.19.18c.42.39.84.77,1.27,1.15l.12.11.06.05.59.52.19.16.64.54.06.05.47.4.12.1.31.26.11.09.54.44h0s.54.44.54.44l.08.06.32.25.56.43.1.08.06.04.69.52.06.05.37.27.13.1.43.32.57.41.13.1.44.31.09.06.44.31.05.03.58.4.07.05.51.34.11.08.41.27.06.04.59.38h.01s.58.38.58.38l.05.03.54.34.55.34.06.03.6.36.61.36.49.28.12.07.62.35c.41.23.82.46,1.23.68h0s.62.34.62.34l.08.04.17.09.55.29.36.18.1.05.63.32h.02s.62.31.62.31l.12.06.39.19.13.06.59.28.05.02.65.3.04.02.59.27.04.02.63.28.65.28h.03s.52.23.52.23l.17.07.6.25.66.26.52.2.23.09.5.19.31.12.86.32.37.13.44.15.36.12.43.15.68.23.07.02.49.16.27.09.54.17.69.21.58.17.22.06.55.16h.04s.69.2.69.2l.63.17.12.03.59.15.06.02c-9.35-7.57-17.36-17.03-23.55-27.86-.54-.94-1.06-1.89-1.57-2.85h0ZM1625.85,2166.04c3.83,3.66,7.99,6.97,12.45,9.86.51-.96,1.03-1.91,1.57-2.85,6.19-10.84,14.2-20.3,23.55-27.86l-.06.02-.59.15-.12.03-.63.17-.69.19h-.04s-.55.17-.55.17l-.22.06-.58.17-.69.21-.54.17-.27.09-.49.16-.07.02-.68.23-.43.15-.36.13-.44.15-.37.13-.86.32-.31.12-.5.19-.23.09-.52.2-.66.27-.6.25-.17.07-.52.22h-.03s-.65.3-.65.3l-.63.28-.04.02-.59.26-.04.02-.65.3-.05.02-.59.28-.13.06-.39.19-.12.06-.62.3h-.02s-.63.33-.63.33l-.1.05-.36.18-.55.29-.17.09-.08.04-.62.33h0c-.41.23-.82.45-1.23.68l-.62.35c-.41.23-.81.47-1.22.71l-.6.36-.06.03-.55.34-.54.34-.05.03-.58.37h-.01s-.59.39-.59.39l-.06.04-.41.27-.11.08-.51.34-.07.05-.58.4-.05.03-.44.31-.09.06-.44.31-.13.1-.57.41-.43.32-.13.1-.37.27-.06.05-.69.52-.06.04-.1.08-.56.43-.32.25-.08.06-.54.43h0s-.54.45-.54.45l-.11.09-.31.26-.12.1-.47.4-.06.05-.64.55-.19.16-.59.52-.06.05-.12.11c-.43.38-.85.76-1.27,1.15l-.19.18-.61.57-.06.05-.11.11h0ZM1730.23,2175.9c4.46-2.9,8.63-6.2,12.45-9.86l-.11-.11-.06-.05-.61-.57-.21-.19-.51-.47-.1-.09-.11-.1-.52-.47-.12-.11-.02-.02-.67-.59-.07-.06-.17-.15-.53-.46-.06-.05-.14-.11-.51-.43-.13-.11-.24-.19-.55-.44h0s-.19-.16-.19-.16l-.52-.41-.16-.12-.73-.57-.06-.04-.69-.52-.06-.05-.37-.27-.22-.16-.33-.25h-.02s-.57-.42-.57-.42l-.13-.1-.44-.31-.39-.27-.08-.06-.68-.47-.07-.05-.51-.34-.14-.09-.39-.26-.07-.04-.59-.38h0s-.59-.38-.59-.38l-.04-.03-.52-.32-.04-.02-.54-.34-.06-.03-.6-.36c-.4-.24-.81-.48-1.22-.71l-.61-.35c-.41-.23-.82-.46-1.23-.68h0s-.62-.34-.62-.34l-.08-.04-.17-.09-.53-.28-.42-.21-.06-.03-.63-.32h-.02s-.62-.31-.62-.31l-.07-.03-.49-.23-.08-.04-.59-.28-.05-.02-.65-.3-.05-.02-.58-.26-.04-.02-.63-.28-.65-.28h-.03s-.52-.23-.52-.23l-.17-.07-.6-.25-.66-.27-.52-.2-.23-.09-.5-.19-.31-.12-.94-.34-.24-.09-.54-.19-.21-.07-.52-.18-.68-.23-.07-.02-.56-.18-.13-.04-.62-.19-.69-.21-.65-.19-.07-.02-.65-.19h0s-.7-.19-.7-.19c-.45-.12-.91-.24-1.37-.36h-.03c9.35,7.56,17.36,17.02,23.56,27.86.54.94,1.06,1.89,1.57,2.85Z"/>
  <path class="cls-33" d="M1883.27,2086.59h189.01c25.39,0,46,20.61,46,46v189.01c0,25.39-20.61,45.99-45.99,45.99h-189.01c-25.39,0-45.99-20.61-45.99-45.99v-189.02c0-25.39,20.61-46,46-46Z"/>
  <g>
    <rect class="cls-6" x="1896.86" y="2146.18" width="161.83" height="161.83" rx="26.49" ry="26.49"/>
    <rect class="cls-32" x="1906.51" y="2155.83" width="142.53" height="142.53" rx="17.66" ry="17.66"/>
    <path class="cls-29" d="M2002.41,2206.27l34.11,62.87c1.53,2.81,1.46,5.98-.17,8.73-1.64,2.75-4.39,4.31-7.59,4.31h-101.98c-3.2,0-5.95-1.56-7.59-4.31-1.64-2.75-1.7-5.91-.17-8.73l18.6-34.29c1.59-2.92,4.44-4.62,7.76-4.62s6.18,1.7,7.76,4.62l6.01,11.08c.63,1.17,1.78,1.85,3.1,1.85s2.47-.68,3.1-1.85l21.52-39.67c1.58-2.92,4.44-4.62,7.76-4.62,3.32,0,6.18,1.7,7.76,4.62Z"/>
    <path class="cls-29" d="M1938.57,2172.16c8.42,0,15.25,6.83,15.25,15.25s-6.83,15.25-15.25,15.25-15.25-6.83-15.25-15.25,6.83-15.25,15.25-15.25Z"/>
  </g>
  <path class="cls-14" d="M1199.12,607.22h183.8c24.69,0,44.73,20.04,44.73,44.73v183.8c0,24.69-20.04,44.73-44.73,44.73h-183.8c-24.69,0-44.73-20.04-44.73-44.73v-183.8c0-24.69,20.04-44.73,44.73-44.73Z"/>
  <path class="cls-14" d="M1517.66,607.22h183.8c24.69,0,44.73,20.04,44.73,44.73v183.8c0,24.69-20.04,44.73-44.73,44.73h-183.8c-24.69,0-44.73-20.04-44.73-44.73v-183.8c0-24.69,20.04-44.73,44.73-44.73Z"/>
  <path class="cls-14" d="M1836.2,607.22h183.8c24.69,0,44.73,20.04,44.73,44.73v183.8c0,24.68-20.04,44.73-44.73,44.73h-183.8c-24.69,0-44.73-20.04-44.73-44.73v-183.8c0-24.69,20.04-44.73,44.73-44.73Z"/>
  <rect class="cls-14" x="1472.93" y="925.76" width="273.25" height="273.25" rx="44.73" ry="44.73"/>
  <rect class="cls-14" x="1154.39" y="925.76" width="273.25" height="273.25" rx="44.73" ry="44.73"/>
  <rect class="cls-14" x="1154.39" y="1244.3" width="273.25" height="273.25" rx="44.73" ry="44.73"/>
  <path class="cls-14" d="M1517.66,1244.3h183.8c24.69,0,44.73,20.04,44.73,44.73v183.8c0,24.68-20.04,44.73-44.73,44.73h-183.8c-24.69,0-44.73-20.04-44.73-44.73v-183.8c0-24.69,20.04-44.73,44.73-44.73Z"/>
  <path class="cls-33" d="M1502.83,592.4h183.81c24.69,0,44.73,20.04,44.73,44.73v183.81c0,24.69-20.04,44.73-44.73,44.73h-183.81c-24.69,0-44.73-20.04-44.73-44.73v-183.81c0-24.69,20.04-44.73,44.73-44.73Z"/>
  <path class="cls-16" d="M1531.64,767.5c5.54,0,10.72,1.08,15.14,2.95v-92.72l106.72-28.46v114.68c0,11.4-13.15,20.64-29.37,20.64s-29.37-9.24-29.37-20.64,13.15-20.64,29.37-20.64c5.54,0,10.72,1.08,15.14,2.95v-54.31l-78.26,21.34v74.84c0,14.14-17.54,20.64-29.37,20.64-16.22,0-29.37-9.24-29.37-20.64s13.15-20.64,29.37-20.64Z"/>
  <path class="cls-33" d="M1821.37,592.4h183.81c24.69,0,44.73,20.04,44.73,44.73v183.81c0,24.69-20.04,44.73-44.73,44.73h-183.81c-24.69,0-44.73-20.04-44.73-44.73v-183.81c0-24.69,20.04-44.73,44.73-44.73Z"/>
  <path class="cls-28" d="M1984.2,721.25l-110.31-63.69c-2.86-1.65-6.13-1.65-8.98,0-2.86,1.65-4.49,4.48-4.49,7.78v127.38c0,3.3,1.64,6.13,4.49,7.78,2.86,1.65,6.13,1.65,8.98,0l110.31-63.69c2.86-1.65,4.49-4.48,4.49-7.78s-1.64-6.13-4.49-7.78Z"/>
  <path class="cls-33" d="M1502.83,910.94h183.81c24.69,0,44.73,20.04,44.73,44.73v183.81c0,24.69-20.04,44.73-44.73,44.73h-183.81c-24.69,0-44.73-20.04-44.73-44.73v-183.81c0-24.69,20.04-44.73,44.73-44.73Z"/>
  <g>
    <path class="cls-29" d="M1594.74,1132.53c-2.96,0-5.51-1.23-7.24-3.48-24.72-32.29-55.43-67.7-55.43-107.74,0-32.42,28.06-58.69,62.67-58.69v34.19c-14.83,0-26.86,12.03-26.86,26.86s12.03,26.86,26.86,26.86v82.01Z"/>
    <path class="cls-21" d="M1594.74,1132.53c2.96,0,5.51-1.23,7.24-3.48,24.72-32.29,55.43-67.7,55.43-107.74,0-32.42-28.06-58.69-62.67-58.69v34.19c14.83,0,26.86,12.03,26.86,26.86s-12.03,26.86-26.86,26.86v82.01Z"/>
  </g>
  <path class="cls-33" d="M1184.3,592.4h183.8c24.69,0,44.73,20.04,44.73,44.73v183.8c0,24.68-20.04,44.73-44.73,44.73h-183.8c-24.69,0-44.73-20.04-44.73-44.73v-183.8c0-24.69,20.04-44.73,44.73-44.73Z"/>
  <polygon class="cls-28" points="1218.71 726.05 1194.08 726.05 1275.76 652.57 1358.32 726.05 1333.68 726.05 1333.68 800.39 1299.07 800.39 1299.07 751.12 1251.56 751.12 1251.56 800.39 1218.71 800.39 1218.71 726.05"/>
  <rect class="cls-33" x="1458.1" y="1229.48" width="273.26" height="273.27" rx="44.73" ry="44.73"/>
  <path class="cls-16" d="M1522.22,1313.68h145.52l-72.98,47.53-72.53-47.53h0ZM1677.13,1317.35l-79.92,52.04c-1.34,1.01-3.23,1.13-4.72.15l-80.14-52.51v101.5h164.78v-101.19Z"/>
  <path class="cls-33" d="M1184.29,910.94h183.81c24.69,0,44.73,20.04,44.73,44.73v183.81c0,24.69-20.04,44.73-44.73,44.73h-183.81c-24.69,0-44.73-20.04-44.73-44.73v-183.81c0-24.69,20.04-44.73,44.73-44.73Z"/>
  <g>
    <rect class="cls-3" x="1197.51" y="968.88" width="157.37" height="157.37" rx="25.76" ry="25.76"/>
    <path class="cls-32" d="M1224.06,978.26h104.26c9.48,0,17.17,7.69,17.17,17.17v104.26c0,9.48-7.69,17.17-17.17,17.17h-104.26c-9.48,0-17.17-7.69-17.17-17.17v-104.26c0-9.48,7.69-17.17,17.17-17.17Z"/>
    <path class="cls-28" d="M1300.16,1027.32l33.17,61.14c1.48,2.74,1.42,5.81-.17,8.49-1.59,2.68-4.26,4.2-7.38,4.2h-99.17c-3.11,0-5.79-1.52-7.38-4.2-1.59-2.67-1.65-5.75-.17-8.49l18.09-33.34c1.54-2.84,4.31-4.49,7.55-4.49s6.01,1.65,7.55,4.49l5.85,10.78c.62,1.14,1.73,1.8,3.02,1.8s2.4-.66,3.02-1.8l20.93-38.57c1.54-2.84,4.31-4.49,7.55-4.49,3.23,0,6.01,1.65,7.55,4.49Z"/>
    <circle class="cls-3" cx="1238.07" cy="1008.98" r="14.83" transform="translate(-79.69 106.55) rotate(-4.77)"/>
  </g>
  <path class="cls-33" d="M1184.29,1229.48h183.81c24.69,0,44.73,20.04,44.73,44.73v183.81c0,24.69-20.04,44.73-44.73,44.73h-183.81c-24.69,0-44.73-20.04-44.73-44.73v-183.81c0-24.69,20.04-44.73,44.73-44.73Z"/>
  <g>
    <path class="cls-7" d="M1279.03,1286l25.22,49.82,55.16,8.59c1.73.27,2.91,1.89,2.64,3.61-.11.69-.43,1.3-.9,1.76l-39.59,39.38,8.88,55.13c.27,1.73-.9,3.35-2.63,3.63-.73.12-1.45-.03-2.05-.37l-49.58-25.43-49.69,25.48c-1.56.79-3.46.18-4.26-1.38-.32-.62-.41-1.3-.31-1.94l8.88-55.13-39.59-39.38c-1.24-1.23-1.25-3.24-.01-4.48.53-.54,1.21-.84,1.9-.92l55.02-8.57,25.22-49.82c.79-1.56,2.7-2.19,4.26-1.4.63.32,1.11.82,1.4,1.4Z"/>
    <path class="cls-27" d="M1279.03,1286l25.22,49.82,22.59,3.52c-15.83,15.45-34.7,30.51-55.98,44.17-14.31,9.19-28.75,17.12-42.95,23.76l2.92-18.1-39.59-39.38c-1.24-1.23-1.25-3.24-.01-4.48.53-.54,1.21-.84,1.9-.92l55.02-8.57,25.22-49.82c.79-1.56,2.7-2.19,4.26-1.4.63.32,1.11.82,1.4,1.4Z"/>
  </g>
  <rect class="cls-25" x="324.8" y="1571.49" width="239.45" height="163.62" rx="9.82" ry="9.82"/>
  <rect class="cls-5" x="303.02" y="1553.45" width="248.66" height="170.42" rx="10.94" ry="10.94"/>
  <path class="cls-30" d="M313.96,1554.26h226.79c5.59,0,10.13,4.54,10.13,10.13v148.55c0,5.59-4.54,10.13-10.13,10.13h-226.79c-5.59,0-10.13-4.54-10.13-10.13v-148.55c0-5.59,4.54-10.13,10.13-10.13Z"/>
  <g>
    <path class="cls-29" d="M455.12,1612.52l16.55-17.54c19.69,19.93,23.89,51.27,8.87,75.97l-20.15-13.25c8.52-14.76,6.07-33.15-5.28-45.18Z"/>
    <path class="cls-20" d="M406.4,1670.53c16.96,11.16,39.55,7.02,51.52-9.06l20.15,13.25c-19.3,27.18-56.82,34.4-84.9,15.93-21.8-14.33-31.64-40.02-26.85-64.13l23.47,5.56c-2.54,14.52,3.52,29.83,16.62,38.44Z"/>
    <path class="cls-2" d="M427.31,1600.53c-12.38.03-24.51,6.07-31.82,17.19-2.08,3.17-3.63,6.53-4.67,9.98l-23.47-5.56c1.69-6.11,4.34-12.07,8.01-17.65,12.21-18.57,32.66-28.46,53.34-28.03l-1.4,24.07Z"/>
    <path class="cls-34" d="M431.82,1600.79l1.4-24.07c9.8.92,19.52,4.18,28.32,9.97,2.43,1.6,4.71,3.34,6.84,5.2l-16.55,17.54c-1.11-.93-2.29-1.8-3.53-2.62-5.13-3.37-10.78-5.35-16.49-6.02Z"/>
  </g>
</svg>