<svg clip-rule="evenodd" fill-rule="evenodd" fill="white" height="512" stroke-linejoin="round" stroke-miterlimit="2" viewBox="0 0 32 31" width="512" xmlns="http://www.w3.org/2000/svg"><g transform="translate(-432 -192)"><path d="m455.5 209c-3.587 0-6.5 2.913-6.5 6.5s2.913 6.5 6.5 6.5 6.5-2.913 6.5-6.5-2.913-6.5-6.5-6.5zm-8.5 3c0-.796-.316-1.559-.879-2.121-.562-.563-1.325-.879-2.121-.879-1.986 0-5.014 0-7 0-.796 0-1.559.316-2.121.879-.563.562-.879 1.325-.879 2.121v7c0 .796.316 1.559.879 2.121.562.563 1.325.879 2.121.879h7c.796 0 1.559-.316 2.121-.879.563-.562.879-1.325.879-2.121zm-2 0v7c0 .265-.105.52-.293.707-.187.188-.442.293-.707.293h-7c-.265 0-.52-.105-.707-.293-.188-.187-.293-.442-.293-.707v-7c0-.265.105-.52.293-.707.187-.188.442-.293.707-.293h7c.265 0 .52.105.707.293.188.187.293.442.293.707zm10.5-1c2.484 0 4.5 2.016 4.5 4.5s-2.016 4.5-4.5 4.5-4.5-2.016-4.5-4.5 2.016-4.5 4.5-4.5zm-8.5-14c0-.796-.316-1.559-.879-2.121-.562-.563-1.325-.879-2.121-.879-1.986 0-5.014 0-7 0-.796 0-1.559.316-2.121.879-.563.562-.879 1.325-.879 2.121v7c0 .796.316 1.559.879 2.121.562.563 1.325.879 2.121.879h7c.796 0 1.559-.316 2.121-.879.563-.562.879-1.325.879-2.121zm15 0c0-.796-.316-1.559-.879-2.121-.562-.563-1.325-.879-2.121-.879-1.986 0-5.014 0-7 0-.796 0-1.559.316-2.121.879-.563.562-.879 1.325-.879 2.121v7c0 .796.316 1.559.879 2.121.562.563 1.325.879 2.121.879h7c.796 0 1.559-.316 2.121-.879.563-.562.879-1.325.879-2.121zm-17 0v7c0 .265-.105.52-.293.707-.187.188-.442.293-.707.293h-7c-.265 0-.52-.105-.707-.293-.188-.187-.293-.442-.293-.707v-7c0-.265.105-.52.293-.707.187-.188.442-.293.707-.293h7c.265 0 .52.105.707.293.188.187.293.442.293.707zm15 0v7c0 .265-.105.52-.293.707-.187.188-.442.293-.707.293h-7c-.265 0-.52-.105-.707-.293-.188-.187-.293-.442-.293-.707v-7c0-.265.105-.52.293-.707.187-.188.442-.293.707-.293h7c.265 0 .52.105.707.293.188.187.293.442.293.707z"/></g></svg>