<svg clip-rule="evenodd" fill-rule="evenodd" fill="white" stroke-linejoin="round" stroke-miterlimit="2" viewBox="0 0 48 48" xmlns="http://www.w3.org/2000/svg"><path id="path144" d="m24 3c-1.016 0-2.033.073-3.041.221-.387.057-.704.334-.814.709l-.784 2.677c-1.533.409-3.007 1.021-4.381 1.817l-2.445-1.342c-.343-.188-.764-.159-1.078.074-1.634 1.217-3.084 2.667-4.301 4.301-.233.314-.262.735-.074 1.078l1.342 2.445c-.796 1.374-1.408 2.848-1.817 4.383 0-.001-2.677.782-2.677.782-.375.11-.652.427-.709.814-.295 2.017-.295 4.065 0 6.082.08.546.587.924 1.134.844.546-.08.924-.587.844-1.133-.236-1.614-.262-3.252-.08-4.871l2.6-.76c.347-.101.612-.382.693-.734.398-1.718 1.079-3.358 2.012-4.854.191-.307.201-.693.027-1.01l-1.301-2.377c.884-1.107 1.889-2.113 2.996-2.996 0-.001 2.377 1.301 2.377 1.301.317.174.703.164 1.01-.027 1.496-.933 3.136-1.614 4.854-2.012.352-.081.633-.346.734-.693l.76-2.6c1.408-.159 2.83-.159 4.238 0l.76 2.6c.101.347.382.612.734.693 1.718.398 3.358 1.079 4.854 2.012.307.191.693.201 1.01.027l2.377-1.301c1.107.884 2.113 1.889 2.996 2.996.001 0-1.301 2.377-1.301 2.377-.174.317-.164.703.027 1.01.933 1.496 1.614 3.136 2.012 4.854.081.352.346.633.693.734l2.6.76c.182 1.619.156 3.257-.08 4.871-.08.546.298 1.053.844 1.133.547.08 1.054-.298 1.134-.844.295-2.017.295-4.065 0-6.082-.057-.387-.334-.704-.709-.814l-2.677-.784c-.409-1.533-1.021-3.007-1.817-4.381l1.342-2.445c.188-.343.159-.764-.074-1.078-1.217-1.634-2.667-3.084-4.301-4.301-.314-.233-.735-.262-1.078-.074l-2.445 1.342c-1.374-.796-2.848-1.408-4.383-1.817.001 0-.782-2.677-.782-2.677-.11-.375-.427-.652-.814-.709-1.008-.148-2.025-.221-3.041-.221zm0 8c-6.995 0-12.799 5.142-13.836 11.848-.084.546.291 1.056.836 1.14.546.085 1.057-.291 1.141-.836.889-5.748 5.864-10.152 11.859-10.152s10.97 4.404 11.859 10.152c.084.545.595.921 1.141.836.545-.084.92-.594.836-1.14-1.037-6.706-6.841-11.848-13.836-11.848zm-13 16c-4.967 0-9 4.033-9 9s4.033 9 9 9c1.296 0 3.128-.749 5.033-1.865 4.086-2.395 8.627-6.385 8.627-6.385s4.376-3.851 8.317-6.16c1.535-.9 2.979-1.59 4.023-1.59 3.863 0 7 3.136 7 7s-3.137 7-7 7c-1.418 0-3.146-.761-4.721-1.635-2.518-1.394-4.644-3.138-4.644-3.138-.427-.35-1.058-.288-1.408.14-.35.427-.289 1.057.138 1.406 0 0 2.265 1.857 4.946 3.342 1.89 1.047 3.987 1.885 5.689 1.885 4.967 0 9-4.033 9-9s-4.033-9-9-9c-1.296 0-3.128.749-5.033 1.865-4.086 2.395-8.627 6.383-8.627 6.383s-4.376 3.851-8.317 6.16c-1.535.9-2.979 1.592-4.023 1.592-3.863 0-7-3.136-7-7s3.137-7 7-7c1.418 0 3.146.761 4.721 1.635 2.518 1.394 4.644 3.138 4.644 3.138.427.35 1.058.288 1.408-.14.35-.427.289-1.057-.138-1.406 0 0-2.265-1.857-4.946-3.342-1.89-1.047-3.987-1.885-5.689-1.885zm0 4c-2.759 0-5 2.241-5 5s2.241 5 5 5c.552 0 1-.448 1-1s-.448-1-1-1c-1.655 0-3-1.344-3-3s1.345-3 3-3c.82 0 1.92.599 2.971 1.256 1.776 1.111 3.373 2.498 3.373 2.498.416.362 1.048.319 1.41-.098.362-.416.319-1.048-.098-1.41 0 0-2.346-2.038-4.609-3.262-1.101-.594-2.197-.984-3.047-.984zm26 0c-.552 0-1 .448-1 1s.448 1 1 1c1.656 0 3 1.344 3 3s-1.344 3-3 3c-.82 0-1.92-.599-2.971-1.256-1.776-1.111-3.373-2.498-3.373-2.498-.416-.362-1.048-.319-1.41.098-.362.416-.319 1.048.098 1.41 0 0 2.346 2.038 4.609 3.262 1.101.594 2.197.984 3.047.984 2.76 0 5-2.241 5-5s-2.24-5-5-5z"/></svg>