<?xml version="1.0" encoding="UTF-8"?>
<svg id="Layer_1" data-name="Layer 1" xmlns="http://www.w3.org/2000/svg" version="1.1" viewBox="0 0 1366 314.85">
  <defs>
    <style>
      .cls-1 {
        fill: #ff4137;
      }

      .cls-1, .cls-2 {
        stroke-width: 0px;
      }

      .cls-2 {
        fill: #fff;
      }
    </style>
  </defs>
  <g>
    <path class="cls-2" d="M174.42,290.82c-73.21,0-132.57-59.35-132.57-132.57S101.21,25.69,174.42,25.69c45.38,0,85.43,22.81,109.33,57.59-25.3-41.44-70.95-69.1-123.06-69.1C81.12,14.17,16.61,78.68,16.61,158.26s64.51,144.08,144.08,144.08c52.11,0,97.75-27.66,123.06-69.1-23.9,34.78-63.95,57.59-109.33,57.59Z"/>
    <path class="cls-2" d="M254.37,184.14l-26.62-26.62-20.77,20.77h-58.28c-39.99,0-62.93-18.89-62.93-51.83s22.94-51.46,62.93-51.46h49.07c2.61,8.24,10.32,14.22,19.41,14.22,11.22,0,20.35-9.13,20.35-20.35s-9.13-20.35-20.35-20.35c-8.98,0-16.61,5.85-19.31,13.93h-50.28c-45.42,0-73.64,24.39-73.64,63.64,0,19.57,6.76,35.8,19.55,46.95,12.81,11.16,31.52,17.07,54.08,17.07h59.49l20.66,20.66,26.62-26.62ZM217.18,58.3c5.83,0,10.57,4.74,10.57,10.57s-4.74,10.57-10.57,10.57-10.57-4.74-10.57-10.57,4.74-10.57,10.57-10.57ZM227.75,173.49l10.65,10.65-10.65,10.65-10.65-10.65,10.65-10.65Z"/>
    <path class="cls-1" d="M105.25,126.98l26.62,26.62,20.77-20.77h58.28c39.99,0,62.93,18.89,62.93,51.83s-22.94,51.46-62.93,51.46h-49.07c-2.61-8.24-10.32-14.22-19.41-14.22-11.22,0-20.35,9.13-20.35,20.35s9.13,20.35,20.35,20.35c8.98,0,16.61-5.85,19.31-13.93h50.28c45.42,0,73.64-24.39,73.64-63.64,0-19.57-6.76-35.8-19.55-46.95-12.81-11.16-31.52-17.07-54.08-17.07h-59.49l-20.66-20.66-26.62,26.62ZM142.43,252.82c-5.83,0-10.57-4.74-10.57-10.57s4.74-10.57,10.57-10.57,10.57,4.74,10.57,10.57-4.74,10.57-10.57,10.57ZM131.87,137.64l-10.65-10.65,10.65-10.65,10.65,10.65-10.65,10.65Z"/>
  </g>
  <path class="cls-2" d="M778.92,207.33c-1.72,0-2.57-.9-2.57-2.69v-32.54c0-19.12,3.75-32.73,11.24-40.85,7.49-8.11,18.3-12.17,32.42-12.17h30.32c1.72,0,2.61.9,2.69,2.69v82.87c0,1.72-.9,2.62-2.69,2.69h-16.27c-1.72,0-2.57-.9-2.57-2.69v-13.46h-33.59v13.46c0,1.72-.9,2.62-2.69,2.69h-16.27ZM831.48,138.27h-11.47c-7.1,0-12.56,2.52-16.39,7.55-3.82,5.03-5.74,13.75-5.74,26.16h33.59v-33.71Z"/>
  <path class="cls-1" d="M1255.81,183.69c0,7.73-2.73,13.6-8.19,17.62-5.46,4.02-13.03,6.03-22.71,6.03h-45.65c-1.8,0-2.65-.9-2.57-2.69v-82.87c0-1.79.86-2.69,2.57-2.69h42.14c9.67,0,17.22,2.03,22.65,6.09,5.42,4.06,8.14,10.34,8.14,18.84s-3.28,14.63-9.83,18.38c8.97,3.67,13.46,10.77,13.46,21.3ZM1198.22,153.61h23.18c6.16,0,9.25-2.46,9.25-7.37,0-5.31-3.08-7.96-9.25-7.96h-23.18v15.33ZM1198.22,188.14h26.69c6.16,0,9.25-2.46,9.25-7.37,0-5.31-3.08-7.96-9.25-7.96h-26.69v15.33Z"/>
  <path class="cls-1" d="M1108.98,172.8v15.33h51.03c1.79,0,2.69.9,2.69,2.69v13.81c0,1.8-.9,2.69-2.69,2.69h-70c-1.8,0-2.65-.9-2.57-2.69v-82.87c0-1.79.86-2.69,2.57-2.69h68.83c1.79,0,2.69.9,2.69,2.69v13.93c0,1.8-.9,2.65-2.69,2.57h-49.86v15.33h46.23c1.79,0,2.69.9,2.69,2.69v13.93c0,1.8-.9,2.65-2.69,2.58h-46.23Z"/>
  <path class="cls-2" d="M654.46,119.08h16.39c1.79,0,2.65.9,2.57,2.69v82.87c0,1.8-.86,2.69-2.57,2.69h-16.39c-1.8,0-2.65-.9-2.57-2.69v-82.87c-.08-1.79.78-2.69,2.57-2.69Z"/>
  <path class="cls-2" d="M552.23,119.08h.23c12.88,0,21.19,3.08,24.93,9.25.16.23.31.47.47.7,3.28-6.63,11.47-9.95,24.58-9.95s22.14,3.08,27.1,9.25c4.95,6.16,7.43,14.63,7.43,25.4v52.56c0,1.8-.86,2.69-2.58,2.69h-16.39c-1.8,0-2.65-.9-2.57-2.69v-52.56c0-4.84-1.04-8.58-3.1-11.24-2.07-2.65-5.7-3.98-10.89-3.98s-8.54,1.29-10.07,3.86-2.28,6.36-2.28,11.35v52.56c0,1.8-.9,2.69-2.69,2.69h-16.27c-1.8,0-2.69-.9-2.69-2.69v-52.56c0-4.84-1.04-8.58-3.1-11.24-2.07-2.65-5.7-3.98-10.89-3.98s-8.54,1.29-10.07,3.86c-1.52,2.58-2.28,6.36-2.28,11.35v52.56c0,1.8-.9,2.69-2.69,2.69h-16.27c-1.8,0-2.65-.9-2.57-2.69v-52.56c0-10.69,2.18-19.14,6.55-25.34,4.37-6.2,13.07-9.3,26.1-9.3Z"/>
  <path class="cls-2" d="M942.67,207.33h-16.39c-1.8-.08-2.65-.98-2.58-2.69v-40.97c0-8.74-1.56-15.16-4.68-19.25-3.12-4.1-7.37-6.15-12.76-6.15h-16.15v66.37c-.08,1.8-.94,2.69-2.57,2.69h-16.39c-1.8-.08-2.65-.98-2.57-2.69v-82.87c.08-1.79.94-2.69,2.57-2.69h35.12c13.03,0,22.78,3.83,29.26,11.47,6.48,7.65,9.72,18.69,9.72,33.13v40.97c0,1.8-.86,2.69-2.57,2.69Z"/>
  <path class="cls-1" d="M1298.7,153.61h11.59c11.31,0,19.66,2.36,25.05,7.08,5.38,4.72,8.08,11.39,8.08,20.02s-2.81,15.22-8.43,19.78c-5.62,4.56-13.85,6.85-24.7,6.85h-42.14c-1.8,0-2.65-.9-2.57-2.69v-13.81c0-1.79.86-2.69,2.57-2.69h42.14c6.94,0,10.42-2.46,10.42-7.37,0-5.31-3.47-7.96-10.42-7.96h-11.59c-11.32,0-19.66-2.36-25.05-7.08s-8.08-11.39-8.08-20.02,2.81-15.22,8.43-19.78c5.62-4.56,13.85-6.85,24.7-6.85h39.68c1.79,0,2.69.9,2.69,2.69v13.93c0,1.8-.9,2.65-2.69,2.57h-39.68c-6.95,0-10.42,2.5-10.42,7.49s3.47,7.84,10.42,7.84Z"/>
  <path class="cls-2" d="M371.06,154.15h11.59c11.31,0,19.66,2.4,25.05,7.19,5.38,4.8,8.08,11.57,8.08,20.33s-2.81,15.45-8.43,20.09-13.85,6.96-24.7,6.96h-42.14c-1.8,0-2.65-.91-2.57-2.74v-14.03c0-1.82.86-2.73,2.57-2.73h42.14c6.94,0,10.42-2.5,10.42-7.49,0-5.39-3.47-8.08-10.42-8.08h-11.59c-11.32,0-19.66-2.4-25.05-7.19-5.38-4.8-8.08-11.57-8.08-20.33s2.81-15.45,8.43-20.09c5.62-4.64,13.85-6.96,24.7-6.96h39.68c1.79,0,2.69.91,2.69,2.74v14.15c0,1.82-.9,2.7-2.69,2.61h-39.68c-6.95,0-10.42,2.54-10.42,7.61s3.47,7.97,10.42,7.97Z"/>
  <path class="cls-2" d="M468.55,208.97h-.35c-12.88,0-22.55-3.08-29.03-9.25-6.55-6.16-9.83-14.63-9.83-25.4v-52.56c0-1.79.86-2.69,2.57-2.69h16.27c1.79,0,2.69.9,2.69,2.69v52.44c0,4.92,1.64,8.7,4.92,11.35,3.28,2.65,7.51,3.98,12.7,3.98s9.15-1.31,11.88-3.92c2.73-2.61,4.1-6.42,4.1-11.41v-52.44c0-1.79.86-2.69,2.58-2.69h16.39c1.79,0,2.65.9,2.57,2.69v52.56c0,10.69-2.98,19.14-8.95,25.34-5.97,6.2-15.47,9.31-28.5,9.31Z"/>
  <path class="cls-1" d="M1043.04,208.97h-.23c-12.88,0-21.19-3.08-24.93-9.25-.16-.31-.31-.59-.47-.82-.08.23-.23.47-.47.7-3.2,6.24-11.28,9.36-24.23,9.36h-.23c-12.88,0-21.81-3.08-26.8-9.25-4.92-6.16-7.37-14.63-7.37-25.4v-52.56c0-1.79.86-2.69,2.57-2.69h16.27c1.79,0,2.69.9,2.69,2.69v52.44c0,4.92,1.03,8.7,3.1,11.35,2.07,2.65,5.7,3.98,10.89,3.98s8.54-1.31,10.07-3.92c1.52-2.61,2.28-6.42,2.28-11.41v-52.44c0-1.79.9-2.69,2.69-2.69h16.27c1.79,0,2.69.9,2.69,2.69v52.44c0,4.92,1.03,8.7,3.1,11.35,2.07,2.65,5.7,3.98,10.89,3.98s8.54-1.31,10.07-3.92c1.52-2.61,2.28-6.42,2.28-11.41v-52.44c0-1.79.86-2.69,2.58-2.69h16.39c1.79,0,2.65.9,2.57,2.69v52.56c0,10.69-2.19,19.14-6.55,25.34-4.37,6.2-13.07,9.31-26.1,9.31Z"/>
  <path class="cls-2" d="M693.59,138.27c-1.8,0-2.65-.86-2.57-2.57v-13.93c0-1.79.86-2.69,2.57-2.69h68.83c1.79,0,2.69.9,2.69,2.69v6.44c0,14.36-3.24,25.4-9.72,33.12-6.24,7.65-15.8,11.47-28.68,11.47-5.15,0-9.17,2.07-12.06,6.2-1.8,2.34-3.08,5.38-3.86,9.13h50.21c1.79,0,2.65.9,2.57,2.69v13.81c0,1.8-.86,2.69-2.57,2.69h-70c-1.72,0-2.62-.9-2.69-2.69v-6.44c0-14.36,3.24-25.36,9.71-33.01,6.24-7.65,15.8-11.51,28.68-11.59,5.15,0,9.17-2.07,12.06-6.2,1.79-2.34,3.08-5.38,3.86-9.13h-49.04Z"/>
</svg>