<svg width="54" height="54" viewBox="0 0 54 54" fill="none" xmlns="http://www.w3.org/2000/svg">
<g clip-path="url(#clip0_5_40)">
<path d="M27 53.5781C12.3447 53.5781 0.421875 41.6553 0.421875 27C0.421875 12.3447 12.3447 0.421875 27 0.421875C41.6553 0.421875 53.5781 12.3447 53.5781 27C53.5781 41.6553 41.6553 53.5781 27 53.5781ZM27 2.95312C13.7406 2.95312 2.95312 13.7406 2.95312 27C2.95312 40.2594 13.7406 51.0469 27 51.0469C40.2594 51.0469 51.0469 40.2594 51.0469 27C51.0469 13.7406 40.2594 2.95312 27 2.95312Z" fill="white"/>
<path d="M27 53.5781C18.7199 53.5781 12.2344 41.9032 12.2344 27C12.2344 12.0968 18.7199 0.421875 27 0.421875C35.2801 0.421875 41.7656 12.0968 41.7656 27C41.7656 41.9032 35.2801 53.5781 27 53.5781ZM27 2.95312C20.3686 2.95312 14.7656 13.9656 14.7656 27C14.7656 40.0344 20.3686 51.0469 27 51.0469C33.6314 51.0469 39.2344 40.0344 39.2344 27C39.2344 13.9656 33.6314 2.95312 27 2.95312Z" fill="white"/>
<path d="M27 16.4531C19.3213 16.4531 11.9419 15.2675 6.2201 13.1153C5.56586 12.8689 5.23544 12.1389 5.48098 11.4846C5.72735 10.8296 6.45652 10.4991 7.11161 10.7455C12.5548 12.794 19.6187 13.9219 26.9998 13.9219C34.3809 13.9219 41.445 12.7938 46.888 10.7455C47.5389 10.5008 48.2723 10.8304 48.5186 11.4846C48.7642 12.1389 48.4338 12.8689 47.7795 13.1153C42.0579 15.2675 34.6786 16.4531 27 16.4531Z" fill="white"/>
<path d="M47.334 43.3353C47.1857 43.3353 47.035 43.3099 46.8882 43.2545C41.445 41.206 34.3811 40.0781 27 40.0781C19.6189 40.0781 12.5548 41.2062 7.11179 43.2545C6.45755 43.5009 5.72753 43.1705 5.48116 42.5154C5.23563 41.8611 5.56604 41.1311 6.22028 40.8848C11.9419 38.7325 19.3215 37.5469 27.0002 37.5469C34.6788 37.5469 42.0582 38.7325 47.78 40.8848C48.4343 41.1311 48.7647 41.8611 48.5192 42.5154C48.328 43.023 47.8457 43.3353 47.334 43.3353Z" fill="white"/>
<path d="M52.3125 28.2656H1.6875C0.988706 28.2656 0.421875 27.6988 0.421875 27C0.421875 26.3012 0.988706 25.7344 1.6875 25.7344H52.3125C53.0113 25.7344 53.5781 26.3012 53.5781 27C53.5781 27.6988 53.0113 28.2656 52.3125 28.2656Z" fill="white"/>
<path d="M26.7668 53.8114C26.068 53.8114 25.5012 53.2446 25.5012 52.5458V1.45435C25.5012 0.755552 26.068 0.188721 26.7668 0.188721C27.4656 0.188721 28.0324 0.755552 28.0324 1.45435V52.5458C28.0324 53.2446 27.4656 53.8114 26.7668 53.8114Z" fill="white"/>
</g>
<defs>
<clipPath id="clip0_5_40">
<rect width="54" height="54" fill="white"/>
</clipPath>
</defs>
</svg>
